<svg xmlns="http://www.w3.org/2000/svg" width="927.6" height="1085.6" viewBox="0 0 9276 10856">
  <defs>
    <style>
      .cls-1 {
        stroke: #eee;
        stroke-width: 10px;

      }
    </style>
  </defs>
  <path class="cls-1" d="M3,10856c0.506-2.8,2.1-4.8,3-7v-3H7v-2H8q0.5-3,1-6h1v-2h1q0.5-3,1-6h1v-2h1l1-6h1v-2h1q0.5-3,1-6h1v-3h1v-2h1q0.5-3,1-6h1v-2h1q0.5-3,1-6h1v-2h1l2-9h1v-2h1q0.5-3,1-6h1v-2h1l2-9h1v-2h1q0.5-3,1-6h1v-2h1l1-6h1v-2h1q0.5-3,1-6c13.112-29.9,22.954-63.1,36-93l2-9h1v-2h1l1-6h1v-2h1q0.5-3,1-6h1v-2h1q0.5-3,1-6h1v-2h1q0.5-3,1-6h1v-2h1v-3h1v-3c9.7-22.1,17.344-46.9,27-69l1-6h1v-2h1l1-6h1v-3h1v-2h1q0.5-3,1-6h1v-2h1q0.5-3,1-6h1v-2h1q0.5-3,1-6h1v-2h1q0.5-3,1-6h1v-2h1q0.5-3,1-6h1v-2h1v-3h1v-3h1v-2h1q1-4.5,2-9h1v-2h1l1-6h1v-2h1l1-6h1v-2h1q0.5-3,1-6h1v-2h1q0.5-3,1-6h1v-2h1q0.5-3,1-6h1v-2h1q0.5-3,1-6h1v-2h1q0.5-3,1-6h1v-2h1q0.5-3,1-6h1v-3h1v-2h1v-3h1v-3c16.752-38.2,29.254-80.6,46-119q1-4.5,2-9h1v-2h1q0.5-3,1-6h1v-2h1q0.5-3,1-6h1v-2h1q0.5-3,1-6h1v-2h1q0.5-3,1-6h1v-2h1q0.5-3,1-6h1v-2h1v-3h1v-3h1v-2h1q1-4.5,2-9h1v-2h1q0.5-3,1-6h1v-2h1q0.5-3,1-6h1v-2h1q0.5-3,1-6h1v-2h1q0.5-3,1-6h1v-2h1l1-6h1v-2h1l1-6h1v-2h1l1-6h1v-2h1q0.5-3,1-6h1v-3h1v-2h1v-3h1v-3c14.232-32.5,24.807-68.5,39-101q0.5-3,1-6h1v-2h1l2-9h1v-2h1q0.5-3,1-6h1v-2h1q0.5-3,1-6h1v-2h1q0.5-3,1-6h1v-2h1q0.5-3,1-6h1v-2h1q0.5-3,1-6h1v-2h1q0.5-3,1-6h1v-2h1q1-4.5,2-9c16.486-37.67,28.553-79.3,45-117q1-4.5,2-9h1v-2h1q0.5-3,1-6h1v-2h1q0.5-3,1-6h1v-2h1q0.5-3,1-6h1v-2h1q0.5-3,1-6h1v-2h1q0.5-3,1-6h1v-2h1q0.5-3,1-6h1v-2h1q1-4.5,2-9h1v-2h1q0.5-3,1-6h1v-2h1q0.5-3,1-6h1v-2h1q0.5-3,1-6c13.092-29.88,22.96-63.11,36-93q1-4.5,2-9h1v-2h1q0.5-3,1-6h1v-2h1q0.5-3,1-6h1v-2h1q0.5-3,1-6h1v-2h1q0.5-3,1-6h1v-2h1q0.5-3,1-6h1v-2h1q0.5-3,1-6h1v-2h1q0.5-3,1-6h1v-2h1v-3h1q0.5-3,1-6c15.356-35.09,26.683-73.89,42-109q1-4.5,2-9h1v-2h1q0.5-3,1-6h1v-2h1q0.5-3,1-6c11.945-27.26,21.08-57.71,33-85q0.5-3,1-6h1v-2h1q0.5-3,1-6h1v-2h1v-3h1q0.5-3,1-6c8.112-18.54,14.908-39.45,23-58q1-4.5,2-9h1v-2h1l1-6h1v-2h1l1-6h1v-2h1l1-6h1v-2h1q0.5-3,1-6h1v-2h1q0.5-3,1-6h1v-2h1q0.5-3,1-6h1v-2h1q0.5-3,1-6h1v-3h1v-2h1v-3h1v-3h1v-2h1q0.5-3,1-6h1v-2h1v-3h1v-3h1v-2h1q0.5-3,1-6h1v-2h1q0.5-3,1-6h1v-2h1q0.5-3,1-6h1v-2h1q0.5-3,1-6h1v-2h1q0.5-3,1-6h1v-3h1v-2h1v-3h1v-3h1v-2h1q0.5-3,1-6h1v-2h1q0.5-3,1-6h1v-2h1q0.5-3,1-6h1v-2h1q0.5-3,1-6h1v-2h1q0.5-3,1-6h1v-2h1l2-9c16.488-37.68,28.556-79.31,45-117q1-4.5,2-9h1v-2h1l1-6h1v-2h1l1-6h1v-2h1q0.5-3,1-6h1v-2h1q0.5-3,1-6h1v-2h1q0.5-3,1-6h1v-2h1v-3h1v-3h1v-2h1q1-4.5,2-9h1v-2h1q0.5-3,1-6h1v-2h1q0.5-3,1-6h1v-2h1q0.5-3,1-6h1v-2h1q0.5-3,1-6h1v-2h1q0.5-3,1-6h1v-2h1v-3h1v-3c14.67-33.48,25.374-70.52,40-104q0.5-3,1-6h1v-2h1l1-6h1v-2h1l1-6h1v-2h1l1-6h1v-2h1q1-4.5,2-9h1v-2h1q0.5-3,1-6h1v-2h1q0.5-3,1-6h1v-2h1q0.5-3,1-6h1v-2h1q0.5-3,1-6h1v-2h1q0.5-3,1-6h1v-2h1q0.5-3,1-6h1v-2h1q0.5-3,1-6h1v-3h1v-2h1l1-6h1v-2h1q0.5-3,1-6h1v-2h1q0.5-3,1-6h1v-2h1q0.5-3,1-6h1v-2h1q0.5-3,1-6h1v-2h1v-3h1v-3h1v-2h1q1-4.5,2-9h1v-2h1q0.5-3,1-6h1v-2h1q0.5-3,1-6h1v-2h1q0.5-3,1-6h1v-2h1q0.5-3,1-6h1v-2h1q0.5-3,1-6h1v-2h1v-3h1v-3h1v-2h1q0.5-3,1-6h1v-2h1q0.5-3,1-6h1v-3h1v-2h1q0.5-3,1-6h1v-2h1q0.5-3,1-6h1v-2h1q0.5-3,1-6h1v-2h1q0.5-3,1-6h1v-2h1q0.5-3,1-6h1v-2h1v-3h1v-3h1v-2h1q1-4.5,2-9c16.486-37.67,28.553-79.3,45-117q0.5-3,1-6h1v-3h1v-2h1v-3h1v-3h1v-2h1q0.5-3,1-6h1v-2h1q0.5-3,1-6h1v-2h1q0.5-3,1-6h1v-2h1q0.5-3,1-6h1v-2h1q0.5-3,1-6h1v-2h1v-3h1v-3h1v-2h1l2-9c15.356-35.09,26.68-73.89,42-109,0.67-3,1.33-6,2-9h1v-2h1c0.33-2,.67-4,1-6h1v-2h1c0.33-2,.67-4,1-6h1v-2h1c0.33-2,.67-4,1-6h1v-2h1c0.33-2,.67-4,1-6h1v-2h1c0.33-2,.67-4,1-6h1v-2h1c0.33-2,.67-4,1-6h1v-2h1c0.33-2,.67-4,1-6h1v-2h1c0.67-3,1.33-6,2-9h1v-2h1c0.33-2,.67-4,1-6h1v-2h1c0.33-2,.67-4,1-6h1v-2h1c0.33-2,.67-4,1-6h1v-2h1c0.33-2,.67-4,1-6h1v-2h1c0.33-2,.67-4,1-6h1v-2h1c0.33-2,.67-4,1-6h1v-2h1c0.67-3,1.33-6,2-9,16.49-37.67,28.55-79.3,45-117,0.67-3,1.33-6,2-9h1v-2h1c0.33-2,.67-4,1-6h1v-2h1c0.33-2,.67-4,1-6h1v-2h1c0.33-2,.67-4,1-6h1v-2h1c0.33-2,.67-4,1-6h1v-2h1c0.33-2,.67-4,1-6h1v-2h1c0.33-2,.67-4,1-6h1v-2h1c0.33-2,.67-4,1-6h1v-2h1c0.67-3,1.33-6,2-9,15.36-35.09,26.68-73.89,42-109,0.67-3,1.33-6,2-9h1v-2h1c0.33-2,.67-4,1-6h1v-2h1c0.33-2,.67-4,1-6h1v-2h1c0.33-2,.67-4,1-6,11.95-27.27,21.08-57.72,33-85,0.33-2,.67-4,1-6h1v-2h1c0.67-3,1.33-6,2-9h1v-2h1c0.33-2,.67-4,1-6,9.68-22.09,17.32-46.85,27-69,0.33-2,.67-4,1-6h1v-2h1c0.33-2,.67-4,1-6h1v-2h1v-3h1v-3c8.54-19.49,15.49-41.52,24-61,0.33-2,.67-4,1-6h1v-2h1v-3h1v-3h1v-2h1c0.33-2,.67-4,1-6h1v-2h1c0.67-3,1.33-6,2-9h1v-2h1c0.33-2,.67-4,1-6h1v-2h1c0.33-2,.67-4,1-6h1v-2h1c0.33-2,.67-4,1-6h1v-2h1c0.33-2,.67-4,1-6h1v-2h1v-3h1v-3h1v-2h1c0.33-2,.67-4,1-6h1v-2h1c0.67-3,1.33-6,2-9h1v-2h1c0.33-2,.67-4,1-6h1v-2h1c0.33-2,.67-4,1-6h1v-2h1c0.33-2,.67-4,1-6h1v-2h1c0.33-2,.67-4,1-6h1v-2h1c0.33-2,.67-4,1-6h1v-2h1c0.33-2,.67-4,1-6h1v-2h1c0.67-3,1.33-6,2-9,15.35-35.09,26.66-73.89,42-109,0.33-2,.67-4,1-6h1v-2h1c0.33-2,.67-4,1-6h1v-3h1v-2h1c0.33-2,.67-4,1-6h1v-2h1c0.33-2,.67-4,1-6h1v-2h1c0.33-2,.67-4,1-6h1v-2h1c0.33-2,.67-4,1-6h1v-2h1c0.33-2,.67-4,1-6h1v-2h1v-3h1v-3h1v-2h1c0.33-2,.67-4,1-6h1v-2h1c0.33-2,.67-4,1-6h1v-3h1v-2h1c0.33-2,.67-4,1-6h1v-2h1c0.33-2,.67-4,1-6h1v-2h1c0.33-2,.67-4,1-6h1v-2h1c0.33-2,.67-4,1-6h1v-2h1c0.33-2,.67-4,1-6h1v-2h1v-3h1v-3h1v-2h1c0.33-2,.67-4,1-6h1v-3h1v-2h1v-3h1v-3h1v-2h1c0.33-2,.67-4,1-6h1v-2h1c0.33-2,.67-4,1-6h1v-2h1c0.33-2,.67-4,1-6h1v-2h1c0.33-2,.67-4,1-6h1v-2h1c0.33-2,.67-4,1-6h1v-2h1c0.67-3,1.33-6,2-9,16.49-37.67,28.55-79.3,45-117,0.67-3,1.33-6,2-9h1v-2h1c0.33-2,.67-4,1-6h1v-2h1c0.33-2,.67-4,1-6h1v-2h1c0.33-2,.67-4,1-6h1v-2h1c0.33-2,.67-4,1-6h1v-2h1c0.33-2,.67-4,1-6h1v-2h1c0.33-2,.67-4,1-6h1v-2h1v-3h1v-3c7.43-16.96,13.61-36.09,21-53,0.33-2,.67-4,1-6h1v-2h1c0.33-2,.67-4,1-6h1v-3c16.49-37.67,28.55-79.3,45-117,0.67-3,1.33-6,2-9h1v-2h1c0.33-2,.67-4,1-6h1v-2h1c0.33-2,.67-4,1-6h1v-2h1c0.33-2,.67-4,1-6h1v-2h1c0.33-2,.67-4,1-6h1v-2h1c0.33-2,.67-4,1-6h1v-2h1c0.33-2,.67-4,1-6h1v-2h1c0.67-3,1.33-6,2-9h1v-2h1c0.33-2,.67-4,1-6,15.37-35.08,26.68-73.89,42-109,0.67-3,1.33-6,2-9h1v-2h1c0.33-2,.67-4,1-6h1v-2h1c0.33-2,.67-4,1-6h1v-2h1c0.33-2,.67-4,1-6h1v-2h1c0.33-2,.67-4,1-6h1v-2h1c0.33-2,.67-4,1-6h1v-2h1c0.33-2,.67-4,1-6h1v-2h1c0.33-2,.67-4,1-6h1v-2h1c0.67-3,1.33-6,2-9,14.21-32.48,24.8-68.5,39-101,0.33-2,.67-4,1-6h1v-2h1c0.33-2,.67-4,1-6h1v-2h1v-3h1c0.33-2,.67-4,1-6,13.07-29.87,22.94-63.1,36-93,0.33-2,.67-4,1-6h1v-2h1c0.33-2,.67-4,1-6h1v-2h1v-3h1c0.33-2,.67-4,1-6h1v-2h1c0.33-2,.67-4,1-6h1v-2h1c0.33-2,.67-4,1-6h1v-2h1c0.33-2,.67-4,1-6h1v-2h1c0.33-2,.67-4,1-6h1v-2h1c0.33-2,.67-4,1-6h1v-2h1v-3h1v-3h1v-2h1c0.33-2,.67-4,1-6h1v-2h1c0.33-2,.67-4,1-6h1v-3h1v-2h1c0.33-2,.67-4,1-6h1v-2h1c0.33-2,.67-4,1-6h1v-2h1c0.33-2,.67-4,1-6h1v-2h1c0.33-2,.67-4,1-6h1v-2h1c0.33-2,.67-4,1-6h1v-2h1v-3h1v-3h1v-2h1c0.67-3,1.33-6,2-9h1v-2h1c0.33-2,.67-4,1-6h1v-2h1c0.33-2,.67-4,1-6h1v-2h1c0.33-2,.67-4,1-6h1v-2h1c0.33-2,.67-4,1-6h1v-2h1c0.33-2,.67-4,1-6h1v-2h1v-3h1v-3c14.67-33.48,25.37-70.52,40-104,0.33-2,.67-4,1-6h1v-2h1c0.33-2,.67-4,1-6h1v-2h1c0.33-2,.67-4,1-6h1v-2h1c0.33-2,.67-4,1-6h1v-2h1c0.67-3,1.33-6,2-9h1v-2h1c0.33-2,.67-4,1-6h1v-2h1c0.33-2,.67-4,1-6h1v-2h1c0.33-2,.67-4,1-6h1v-2h1c0.33-2,.67-4,1-6h1v-2h1c0.33-2,.67-4,1-6h1v-2h1c0.33-2,.67-4,1-6h1v-2h1c0.67-3,1.33-6,2-9h1v-2h1c0.33-2,.67-4,1-6h1v-2h1c0.33-2,.67-4,1-6,13.09-29.88,22.95-63.12,36-93,0.33-2,.67-4,1-6h1v-2h1c0.67-3,1.33-6,2-9h1v-2h1c0.33-2,.67-4,1-6h1v-2h1c0.33-2,.67-4,1-6h1v-2h1c0.33-2,.67-4,1-6h1v-2h1c0.33-2,.67-4,1-6h1v-2h1c0.33-2,.67-4,1-6h1v-2h1c0.33-2,.67-4,1-6h1v-2h1c0.67-3,1.33-6,2-9,14.22-32.48,24.8-68.48,39-101,0.33-2,.67-4,1-6h1v-2h1c0.33-2,.67-4,1-6h1v-2h1v-3h1c0.33-2,.67-4,1-6,8.11-18.54,14.91-39.45,23-58,0.67-3,1.33-6,2-9h1v-2h1c0.33-2,.67-4,1-6h1v-2h1c0.33-2,.67-4,1-6h1v-2h1c0.33-2,.67-4,1-6h1v-2h1c0.33-2,.67-4,1-6h1v-2h1c0.33-2,.67-4,1-6h1v-2h1c0.33-2,.67-4,1-6h1v-2h1c0.33-2,.67-4,1-6h1v-3h1v-2h1v-3h1v-3h1v-2h1c0.33-2,.67-4,1-6h1v-2h1v-3h1v-3h1v-2h1c0.33-2,.67-4,1-6h1v-2h1c0.33-2,.67-4,1-6h1v-2h1c0.33-2,.67-4,1-6h1v-2h1c0.67-3,1.33-6,2-9h1v-2h1c0.33-2,.67-4,1-6h1v-2h1v-3h1v-3h1v-2h1c0.33-2,.67-4,1-6h1v-2h1c0.33-2,.67-4,1-6h1v-2h1c0.33-2,.67-4,1-6h1v-2h1c0.33-2,.67-4,1-6h1v-2h1c0.33-2,.67-4,1-6h1v-2h1c0.67-3,1.33-6,2-9,16.49-37.68,28.56-79.31,45-117,0.33-2,.67-4,1-6h1v-3h1v-2h1v-3h1v-3c11.95-27.26,21.08-57.71,33-85,0.33-2,.67-4,1-6h1v-2h1c0.33-2,.67-4,1-6h1v-2h1v-3h1c0.33-2,.67-4,1-6h1v-2h1c0.33-2,.67-4,1-6h1v-2h1c0.33-2,.67-4,1-6h1v-2h1c0.33-2,.67-4,1-6h1v-2h1c0.33-2,.67-4,1-6h1v-2h1c0.33-2,.67-4,1-6h1v-2h1v-3h1v-3h1v-2h1c0.33-2,.67-4,1-6h1v-2h1c0.33-2,.67-4,1-6h1v-3h1v-2h1c0.33-2,.67-4,1-6h1v-2h1c0.33-2,.67-4,1-6h1v-2h1c0.33-2,.67-4,1-6h1v-2h1c0.33-2,.67-4,1-6h1v-2h1c0.33-2,.67-4,1-6h1v-2h1v-3h1v-3h1v-2h1c0.67-3,1.33-6,2-9,16.49-37.67,28.55-79.3,45-117,0.33-2,.67-4,1-6h1v-3h1v-2h1v-3h1v-3h1v-2h1c0.33-2,.67-4,1-6h1v-2h1c0.33-2,.67-4,1-6h1v-2h1c0.33-2,.67-4,1-6h1v-2h1c0.33-2,.67-4,1-6h1v-2h1c0.33-2,.67-4,1-6h1v-2h1v-3h1v-3h1v-2h1c0.67-3,1.33-6,2-9,15.35-35.09,26.69-73.89,42-109,0.67-3,1.33-6,2-9h1v-2h1c0.33-2,.67-4,1-6h1v-2h1c0.33-2,.67-4,1-6h1v-2h1c0.33-2,.67-4,1-6h1v-2h1c0.33-2,.67-4,1-6h1v-2h1c0.33-2,.67-4,1-6h1v-2h1c0.33-2,.67-4,1-6h1v-2h1c0.33-2,.67-4,1-6h1v-2h1c0.67-3,1.33-6,2-9,9.65-22.1,17.36-46.83,27-69v-3h1v-3h1v-2h1c0.33-2,.67-4,1-6h1v-2h1c0.33-2,.67-4,1-6h1v-2h1c0.33-2,.67-4,1-6h1v-2h1c0.33-2,.67-4,1-6h1v-2h1c0.33-2,.67-4,1-6h1v-2h1v-3h1c0.33-2,.67-4,1-6h1v-2h1c0.33-2,.67-4,1-6h1v-2h1c0.33-2,.67-4,1-6h1v-2h1c0.33-2,.67-4,1-6h1v-2h1c0.33-2,.67-4,1-6h1v-79c0-13.18-2.87-22.18-6-32v-5h-1v-4h-1v-4h-1v-4h-1c-0.33-3-.67-6-1-9h-1c-0.33-2.67-.67-5.33-1-8h-1l-3-18c-7.78-24.05-11.25-51.91-19-76q-1.5-8.505-3-17h-1v-5h-1v-4h-1v-4h-1v-4h-1v-5c-7.41-22.81-10.64-49.17-18-72q-1.5-8.505-3-17h-1v-5h-1v-4h-1v-4h-1v-4h-1v-5c-7.83-24.05-11.25-51.95-19-76q-1.5-8.505-3-17h-1l-3-18c-6.04-18.57-9-40.37-15-59v-5h-1v-4h-1v-4h-1v-4h-1v-5c-5.61-17.23-8.16-37.8-14-55-0.33-3-.67-6-1-9-5.61-17.23-8.16-37.8-14-55-0.33-3-.67-6-1-9-3.83-11.78-6-26.19-10-38-0.33-3-.67-6-1-9h-1v-4h-1v-4h-1v-4h-1c-0.33-3-.67-6-1-9h-1v-4h-1v-4h-1v-5h-1v-4h-1v-4h-1v-4h-1c-0.33-3-.67-6-1-9h-1v-4h-1v-5c-7.82-24.03-11.24-51.92-19-76-0.33-3-.67-6-1-9-5.43-15.9-7.6-35.07-13-51-0.33-3-.67-6-1-9-3.83-11.78-6-26.19-10-38-0.33-3-.67-6-1-9-4.25-13.07-6.58-28.96-11-42-0.33-3-.67-6-1-9h-1v-4h-1v-4h-1v-5h-1v-4h-1v-4h-1v-4h-1v-5c-7.82-24.02-11.25-51.95-19-76v-5h-1v-4h-1v-4h-1v-4h-1c-0.33-3-.67-6-1-9h-1v-4h-1c-0.33-3-.67-6-1-9-5.87-17.2-8.42-37.68-14-55v-5h-1v-4h-1v-4h-1v-4h-1v-5c-5.61-17.23-8.16-37.8-14-55-0.33-3-.67-6-1-9-3.83-11.78-6-26.19-10-38-0.33-3-.67-6-1-9h-1v-4h-1v-4h-1v-4h-1c-0.33-3-.67-6-1-9h-1v-4h-1v-4h-1v-5h-1v-4h-1v-4h-1v-4h-1c-0.33-3-.67-6-1-9h-1v-4h-1v-5c-7.82-24.03-11.24-51.92-19-76-0.33-3-.67-6-1-9-5.43-15.9-7.6-35.07-13-51-0.33-3-.67-6-1-9-3.83-11.78-6-26.19-10-38-0.33-3-.67-6-1-9h-1v-4h-1v-4h-1v-4h-1c-0.33-3-.67-6-1-9h-1v-4h-1v-4h-1v-5h-1v-4h-1v-4h-1v-4h-1c-0.33-3-.67-6-1-9h-1v-4h-1v-5c-7.82-24.03-11.24-51.92-19-76-0.33-3-.67-6-1-9-4.01-11.74-6.19-26.18-10-38v-5h-1v-4h-1v-4h-1v-4h-1c-0.33-3-.67-6-1-9h-1v-4h-1v-4h-1v-5h-1v-4h-1v-4h-1v-4h-1c-0.33-3-.67-6-1-9h-1v-4h-1v-5c-7.82-24.03-11.24-51.92-19-76q-1.5-8.505-3-17h-1v-5h-1v-4h-1v-4h-1v-4h-1c-0.33-3-.67-6-1-9h-1v-4h-1v-5c-7.82-24.03-11.24-51.92-19-76q-1.5-8.505-3-17h-1v-5h-1v-4h-1v-4h-1v-4h-1c-0.33-3-.67-6-1-9h-1v-4h-1v-5h-1v-4h-1v-4h-1v-4h-1c-0.33-3-.67-6-1-9h-1v-4h-1v-4h-1v-5h-1v-4h-1v-4h-1v-4h-1c-0.33-3-.67-6-1-9h-1v-4h-1v-5c-7.82-24.03-11.24-51.92-19-76v-5h-1v-4h-1v-4h-1v-4h-1v-5c-7.83-24.05-11.25-51.95-19-76l-3-18c-6.04-18.57-9-40.37-15-59v-5h-1v-4h-1v-4h-1v-4h-1v-5c-5.61-17.23-8.16-37.8-14-55-0.33-3-.67-6-1-9-3.83-11.78-6-26.2-10-38-0.33-3-.67-6-1-9h-1v-4h-1v-4h-1v-4h-1c-0.33-3-.67-6-1-9h-1v-4h-1v-4h-1v-5h-1v-4h-1v-4h-1v-4h-1c-0.33-3-.67-6-1-9h-1v-4h-1v-5c-7.82-24.03-11.24-51.92-19-76-0.33-3-.67-6-1-9-5.86-17.16-8.44-37.74-14-55v-5h-1v-4h-1v-4h-1v-4h-1v-5c-5.61-17.24-8.17-37.82-14-55-0.33-3-.67-6-1-9-5.61-17.24-8.17-37.82-14-55-0.33-3-.67-6-1-9-3.82-11.73-6.03-26.28-10-38-0.33-3-.67-6-1-9h-1v-4h-1v-4h-1v-4h-1c-0.33-3-.67-6-1-9h-1v-4h-1v-4h-1v-5h-1v-4h-1v-4h-1v-5h-1v-4h-1v-4h-1v-4h-1v-5c-7.82-24.02-11.25-51.95-19-76v-5h-1v-4h-1v-4h-1v-4h-1v-5c-6.06-18.61-9.01-40.41-15-59l-3-18c-7.82-24.028-11.24-51.92-19-76q-1.5-8.5-3-17h-1v-5h-1v-4h-1v-4h-1v-4h-1c-0.33-3-.67-6-1-9h-1v-4h-1v-5c-7.82-24.028-11.24-51.92-19-76v-5h-1v-4h-1v-4h-1v-4h-1v-5c-6.04-18.546-9.02-40.448-15-59v-5h-1v-4h-1v-4h-1v-4h-1v-5c-5.63-17.31-8.16-37.782-14-55-0.33-3-.67-6-1-9-3.84-11.81-6.01-26.249-10-38-0.33-3-.67-6-1-9h-1v-4h-1v-4h-1v-4h-1c-0.33-3-.67-6-1-9h-1v-4h-1v-5h-1v-4h-1v-4h-1v-4h-1c-0.33-3-.67-6-1-9h-1v-4h-1v-4h-1v-5c-7.83-24.051-11.25-51.946-19-76v-5h-1v-4h-1v-4h-1v-5h-1v-4h-1v-4h-1v-4h-1v-5c-6.9-21.217-10.15-45.752-17-67l-3-17h-1q-1.5-8.5-3-17h-1v-5h-1v-4c-2.69-7.877-4.34-17.98-7-26-0.33-2.667-.67-5.334-1-8h-1v-4h-1v-5h-1v-4h-1v-4h-1v-4h-1v-5h-1v-4h-1v-4h-1v-4h-1c-0.33-3-.67-6-1-9h-1v-4h-1v-5c-9.57-29.508-13.75-63.342-23-93V83h-1V79h-1V75h-1V70h-1V66h-1V62h-1c-0.33-3-.67-6-1-9-3.99-11.761-6.03-26.229-10-38-0.33-3-.67-6-1-9h-1V2h-1V1h1c1.95-1.694,7.45-1,11-1h601V1h1c0.08,4.821,1.79,8.481,3,12,0.33,3,.67,6,1,9h1v4h1v4h1v4h1q1.005,6.5,2,13c4.19,12.768,6.85,28.243,11,41v5h1v4h1v4h1v4h1v4h1v4h1v5c9.45,28.91,13.62,62.069,23,91v5h1v4h1v4h1v4h1v4h1v4h1v5c5.97,18.269,8.79,39.806,15,58q1.005,6.5,2,13h1v4h1v4h1v4h1v4h1v4h1v5h1c0.33,2.667.67,5.334,1,8h1c-0.33,1-.67,2-1,3h1v4c3.42,10.121,5.54,22.859,9,33q1.005,6.5,2,13h1v4h1v4h1v4h1v4h1v4h1q1.005,6.5,2,13c6.24,18.213,9.08,39.738,15,58v5h1v4h1v4h1v4h1v4h1v4h1v5h1v4h1v4h1v4h1v4h1v4h1c0.33,3,.67,6,1,9h1v4h1v4h1v4h1c0.33,3,.67,6,1,9h1v4h1v4h1v4h1v4h1c0.33,3,.67,6,1,9,6.65,19.442,9.66,42.423,16,62q1.005,6.5,2,13c6.68,19.462,9.67,42.45,16,62v5c1.54,4.708,3.47,11.29,5,16v5c6.38,19.541,9.35,42.518,16,62q1.005,6.5,2,13c5.96,18.27,8.79,39.806,15,58q1.005,6.5,2,13c3.74,11.449,6.1,25.557,10,37,0.33,3,.67,6,1,9h1v4h1v4h1v4h1v4h1v4h1c0.33,3,.67,6,1,9h1v4h1v4h1v4h1v4h1c0.33,3,.67,6,1,9h1v4h1v4h1v4h1v4h1v5c6.81,20.87,10.24,45.13,17,66,0.33,3,.67,6,1,9,3.45,10.07,5.55,22.89,9,33,0.33,3,.67,6,1,9,4.16,12.75,6.67,28.29,11,41,0.33,3,.67,6,1,9,3.74,11.45,6.1,25.56,10,37,0.33,3,.67,6,1,9h1v4h1v4h1v4h1v4h1v4h1v5c9.43,28.91,13.62,62.06,23,91,0.33,3,.67,6,1,9,5.78,16.9,8.21,37.04,14,54q1.005,6.495,2,13c4.16,12.75,6.67,28.29,11,41,0.33,3,.67,6,1,9,3.74,11.45,6.1,25.56,10,37,0.33,3,.67,6,1,9h1v4h1v4h1v4h1v4h1v4h1c0.33,3,.67,6,1,9h1v4h1v4h1v4h1v4h1c0.33,3,.67,6,1,9h1v4h1v4h1v4h1v4h1v5c6.81,20.87,10.24,45.13,17,66,0.33,3,.67,6,1,9,3.45,10.07,5.55,22.89,9,33,0.33,3,.67,6,1,9,4.16,12.75,6.67,28.29,11,41,0.33,3,.67,6,1,9h1v4h1v4h1v4h1v4h1v4h1v5c9.45,28.96,13.62,62.05,23,91,0.33,3,.67,6,1,9,3.46,10.11,5.57,22.92,9,33,0.33,3,.67,6,1,9,9.43,28.91,13.62,62.06,23,91,0.33,3,.67,6,1,9,3.9,11.38,6.12,25.61,10,37,0.33,3,.67,6,1,9,1.54,4.71,3.47,11.29,5,16v5c9.44,28.93,13.61,62.02,23,91v5h1v4h1v4h1v4h1v4h1v4h1v5c6.8,20.85,10.23,45.11,17,66v5h1v4h1v4h1v4h1v4h1v4h1v5c5.96,18.25,8.77,39.77,15,58q1.005,6.495,2,13c6.38,19.54,9.35,42.52,16,62q1.005,6.495,2,13c3.74,11.45,6.1,25.56,10,37,0.33,3,.67,6,1,9,4.16,12.75,6.67,28.29,11,41,0.33,3,.67,6,1,9h1v4h1v4h1v4h1v4h1v4h1v5c9.45,28.96,13.62,62.04,23,91,0.33,3,.67,6,1,9,5.79,16.92,8.22,37.08,14,54q1.005,6.495,2,13c5.95,18.22,8.79,39.83,15,58q1.005,6.495,2,13c4.16,12.75,6.67,28.29,11,41,0.33,3,.67,6,1,9,1.54,4.71,3.47,11.29,5,16q1.005,6.495,2,13h1v4h1v4h1v4h1c0.33,3,.67,6,1,9h1v4h1v4h1v4h1v4h1c0.33,3,.67,6,1,9,6.65,19.42,9.67,42.47,16,62,0.33,3,.67,6,1,9,5.78,16.9,8.21,37.04,14,54q1.005,6.495,2,13h1v4h1v4h1v4h1v4h1v4h1v5c9.43,28.91,13.62,62.06,23,91v5h1v4h1v4h1v4h1v4h1v4h1v5c6.8,20.83,10.25,45.15,17,66v5h1v4h1v4h1v4h1v4h1v4h1v5c6.8,20.83,10.25,45.15,17,66v5h1v4h1v4h1v4h1v4h1v4h1v5c5.95,18.22,8.79,39.83,15,58q1.005,6.495,2,13c4.16,12.75,6.67,28.29,11,41,0.33,3,.67,6,1,9,3.74,11.46,6.11,25.6,10,37,0.33,3,.67,6,1,9h1v4h1v4h1v4h1v4h1v4h1v5c9.44,28.92,13.63,62.07,23,91v5h1v4h1v4h1v4h1v4h1v4h1v5c1.54,4.71,3.47,11.29,5,16,0.33,3,.67,6,1,9h1v4h1v4h1v4h1v4h1v5c6.8,20.85,10.23,45.11,17,66v5c2.9,8.9,4.94,20.02,8,29,0.33,2.67.67,5.33,1,8,3.49,10.18,5.71,22.84,9,33v5c1.53,4.71,3.47,11.29,5,16q1.005,6.495,2,13h1v4h1v4h1v4h1c0.33,3,.67,6,1,9h1v4h1v4h1v4h1v4h1c0.33,3,.67,6,1,9,6.63,19.43,9.68,42.47,16,62v5h1v4h1v4h1v4h1v4h1v4h1q1.5,8.505,3,17c3.54,10.51,5.84,23.26,9,34v65h-1v3h-1v2h-1c-0.33,2-.67,4-1,6h-1v3h-1v3h-1v3h-1v2h-1v3h-1v3h-1v3h-1v3h-1v3h-1v2h-1c-0.67,3-1.33,6-2,9h-1c-0.67,3-1.33,6-2,9h-1v2h-1v3h-1v3h-1v3h-1v3h-1v3h-1v2h-1c-0.33,2-.67,4-1,6h-1c-0.67,3-1.33,6-2,9h-1v2h-1v3h-1v3h-1v3h-1v3h-1v3h-1v2h-1v3h-1v3h-1v3h-1v3h-1v3c-9.73,22.22-16.29,47.77-26,70-0.67,3-1.33,6-2,9h-1c-0.33,2-.67,4-1,6h-1v3h-1v2h-1c-0.67,3-1.33,6-2,9h-1c-0.33,2-.67,4-1,6h-1v2h-1c-0.33,2-.67,4-1,6h-1c-0.67,3-1.33,6-2,9h-1v2h-1v3h-1v3h-1v3h-1v3h-1v3c-9.73,22.22-16.29,47.77-26,70v3h-1v3h-1v3h-1v3h-1v3h-1v2h-1v3h-1v3h-1v3h-1v3h-1v3h-1v3h-1v2h-1c-0.67,3-1.33,6-2,9-1.74,4.36-4.26,9.64-6,14-0.67,3-1.33,6-2,9h-1v2h-1c-0.33,2-.67,4-1,6h-1c-0.67,3-1.33,6-2,9h-1v2h-1v3h-1v3h-1v3h-1v3h-1v3h-1v2h-1c-0.33,2-.67,4-1,6h-1c-0.67,3-1.33,6-2,9h-1v2h-1v3h-1v3h-1v3h-1v3h-1v3c-10.15,23.18-16.86,49.79-27,73v3h-1v3h-1v3h-1v3h-1v3h-1v2h-1v3h-1v3h-1v3h-1v3h-1v3h-1v2h-1v3h-1v3h-1v3h-1v3h-1v3c-7.33,16.73-12.69,36.26-20,53v3h-1v3h-1v3h-1v3h-1v3c-7.74,17.67-13.28,38.32-21,56v3h-1v3h-1v3h-1v3h-1v3h-1v2h-1c-0.33,2-.67,4-1,6h-1c-0.67,3-1.33,6-2,9h-1v2h-1v3h-1v3h-1v3h-1v3h-1v3h-1v2h-1v3h-1v3h-1v3h-1v3h-1v3h-1v2h-1c-0.33,2-.67,4-1,6h-1c-0.67,3-1.33,6-2,9h-1v2h-1v3h-1v3h-1v3h-1v3h-1v3h-1v2h-1c-0.67,3-1.33,6-2,9-1.74,4.36-4.26,9.64-6,14v3h-1v3h-1v3h-1v3c-9.73,22.22-16.29,47.77-26,70v3h-1v3h-1v3h-1v3h-1v3h-1v2h-1v3h-1v3h-1v3h-1v3h-1v3c-10.14,23.17-16.87,49.81-27,73v3h-1v3h-1v3h-1v3h-1v3h-1v2h-1v3h-1v3h-1v3h-1v3h-1v3c-9.73,22.22-16.29,47.77-26,70v3h-1v3h-1v3h-1v3h-1v3h-1v2h-1q-2.505,9-5,18c-9.73,22.22-16.29,47.77-26,70v3h-1v3h-1v3h-1v3h-1v3c-7.33,16.73-12.69,36.26-20,53q-2.505,9-5,18h-1v2h-1c-0.33,2-.67,4-1,6h-1c-0.67,3-1.33,6-2,9h-1v2h-1v3h-1v3h-1v3h-1v3h-1v3h-1v2h-1v3h-1v3h-1v3h-1v3h-1v3h-1v2h-1c-0.33,2-.67,4-1,6h-1c-0.67,3-1.33,6-2,9h-1v2h-1v3h-1v3h-1v3h-1v3h-1v3h-1v2h-1c-0.33,2-.67,4-1,6h-1c-0.67,3-1.33,6-2,9h-1v2h-1v3h-1v3h-1v3h-1v3h-1v3c-10.14,23.17-16.88,49.83-27,73v3h-1v3h-1v3h-1v3h-1v3h-1v2h-1c-0.67,3-1.33,6-2,9h-1c-0.33,2-.67,4-1,6h-1v2h-1v3h-1c-0.33,2-.67,4-1,6h-1c-0.33,2-.67,4-1,6h-1v2h-1c-0.33,2-.67,4-1,6h-1c-0.67,3-1.33,6-2,9h-1v2h-1v3h-1v3h-1v3h-1v3h-1v3c-10.14,23.17-16.87,49.81-27,73v3h-1v3h-1v3h-1v3h-1v3h-1v2h-1v3h-1v3h-1v3h-1v3h-1v3h-1v2h-1c-0.67,3-1.33,6-2,9h-1c-0.33,2-.67,4-1,6h-1v2h-1v3h-1c-0.33,2-.67,4-1,6h-1c-0.33,2-.67,4-1,6h-1v2h-1c-0.33,2-.67,4-1,6h-1c-0.67,3-1.33,6-2,9h-1v2h-1v3h-1v3h-1v3h-1v3h-1v3c-10.14,23.17-16.88,49.83-27,73v3h-1v3h-1v3h-1v3h-1v3h-1v2h-1c-0.67,3-1.33,6-2,9h-1c-0.33,2-.67,4-1,6h-1v2h-1v3h-1c-0.33,2-.67,4-1,6h-1c-0.33,2-.67,4-1,6-10.15,23.18-16.86,49.79-27,73v3h-1v3h-1v3h-1v3h-1v3h-1v2h-1c-0.67,3-1.33,6-2,9h-1c-0.33,2-.67,4-1,6h-1v2h-1v3h-1c-0.33,2-.67,4-1,6h-1c-0.33,2-.67,4-1,6-9.73,22.22-16.29,47.77-26,70v3h-1v3h-1v3h-1v3h-1v3h-1v2h-1q-2.505,9-5,18c-9.73,22.22-16.29,47.77-26,70v3h-1v3h-1v3h-1v3h-1v3c-7.33,16.73-12.69,36.26-20,53q-2.505,9-5,18h-1v2h-1c-0.33,2-.67,4-1,6h-1c-0.67,3-1.33,6-2,9h-1v2h-1v3h-1v3h-1v3h-1v3h-1v3h-1v2h-1v3h-1v3h-1v3h-1v3h-1v3h-1v2h-1c-0.33,2-.67,4-1,6h-1c-0.67,3-1.33,6-2,9h-1v2h-1v3h-1v3h-1v3h-1v3h-1v3h-1v2h-1c-0.33,2-.67,4-1,6h-1c-0.67,3-1.33,6-2,9h-1v2h-1v3h-1v3h-1v3h-1v3h-1v3c-10.14,23.17-16.88,49.83-27,73v3h-1v3h-1v3h-1v3h-1v3h-1v2h-1v3h-1v3h-1v3h-1v3h-1v3h-1v2h-1c-0.67,3-1.33,6-2,9-1.74,4.36-4.26,9.64-6,14-0.67,3-1.33,6-2,9h-1v2h-1v3h-1v3h-1v3h-1v3h-1v3h-1v2h-1c-0.67,3-1.33,6-2,9h-1c-0.33,2-.67,4-1,6h-1v2h-1v3h-1v3h-1v3h-1v3h-1v3h-1v3h-1v2h-1c-0.33,2-.67,4-1,6h-1c-0.67,3-1.33,6-2,9h-1v2h-1v3h-1v3h-1v3h-1v3h-1v3h-1v2h-1c-0.33,2-.67,4-1,6h-1c-0.67,3-1.33,6-2,9h-1v2h-1v3h-1v3h-1v3h-1v3h-1v3c-9.73,22.22-16.29,47.77-26,70v3h-1v3h-1v3h-1v3h-1v3h-1v2h-1v3h-1v3h-1v3h-1v3h-1v3h-1v3h-1v2h-1c-0.67,3-1.33,6-2,9h-1c-0.33,2-.67,4-1,6h-1v2h-1v3h-1v3h-1v3h-1v3h-1v3h-1v2h-1v3h-1v3h-1v3h-1v3h-1v3h-1v2h-1c-0.33,2-.67,4-1,6h-1c-0.67,3-1.33,6-2,9h-1v2h-1v3h-1v3h-1v3h-1v3h-1v3h-1v2h-1v3h-1v3h-1v3h-1v3h-1v3h-1v2h-1c-0.33,2-.67,4-1,6h-1c-0.67,3-1.33,6-2,9h-1v2h-1v3h-1v3h-1v3h-1v3h-1v3h-1v2h-1c-0.67,3-1.33,6-2,9h-1c-0.67,3-1.33,6-2,9h-1v2h-1v3h-1v3h-1v3h-1v3h-1v3c-9.73,22.22-16.29,47.77-26,70v3h-1v3h-1v3h-1v3h-1v3h-1v2h-1v3h-1v3h-1v3h-1v3h-1v3h-1v2h-1c-0.67,3-1.33,6-2,9h-1c-0.33,2-.67,4-1,6h-1v2h-1v3h-1c-0.33,2-.67,4-1,6h-1c-0.67,3-1.33,6-2,9h-1v2h-1c-0.33,2-.67,4-1,6h-1c-0.67,3-1.33,6-2,9h-1v2h-1v3h-1v3h-1v3h-1v3h-1v3c-9.73,22.22-16.29,47.77-26,70v3h-1v3h-1v3h-1v3h-1v3h-1v2h-1v3h-1v3h-1v3h-1v3h-1v3h-1v2h-1c-0.67,3-1.33,6-2,9h-1c-0.67,3-1.33,6-2,9h-1v2h-1v3h-1v3h-1v3h-1v3h-1v3h-1v2h-1c-0.67,3-1.33,6-2,9-1.74,4.36-4.26,9.64-6,14-0.67,3-1.33,6-2,9-9.73,22.22-16.29,47.77-26,70v3h-1v3h-1v3h-1v3h-1v3h-1v2h-1v3h-1v3h-1v3h-1v3c-1.74,4.36-4.26,9.64-6,14-0.67,3-1.33,6-2,9h-1v2h-1c-0.67,3-1.33,6-2,9h-1c-0.33,2-.67,4-1,6h-1v2h-1v3h-1c-0.33,2-.67,4-1,6h-1c-0.33,2-.67,4-1,6-9.73,22.22-16.29,47.77-26,70v3h-1v3h-1v3h-1v3h-1v3h-1v2h-1c-0.67,3-1.33,6-2,9h-1c-0.33,2-.67,4-1,6h-1v3h-1v2h-1c-0.67,3-1.33,6-2,9h-1c-0.33,2-.67,4-1,6-9.73,22.22-16.29,47.77-26,70v3h-1v3h-1v3h-1v3h-1v3h-1v2h-1v3h-1v3h-1v3h-1v3h-1v3c-7.74,17.67-13.28,38.32-21,56v3h-1v3h-1v3h-1v3h-1v3c-7.33,16.73-12.69,36.26-20,53v3h-1v3h-1v3h-1v3h-1v3h-1v2h-1c-0.33,2-.67,4-1,6h-1c-0.67,3-1.33,6-2,9h-1v2h-1v3h-1v3h-1v3h-1v3h-1v3h-1v2h-1v3h-1v3h-1v3h-1v3h-1v3h-1v2h-1c-0.67,3-1.33,6-2,9h-1c-0.67,3-1.33,6-2,9h-1v2h-1v3h-1v3h-1v3h-1v3h-1v3h-1v2h-1c-0.33,2-.67,4-1,6h-1c-0.67,3-1.33,6-2,9h-1v2h-1v3h-1v3h-1v3h-1v3h-1v3c-9.73,22.22-16.29,47.77-26,70v3h-1v3h-1v3h-1v3h-1v3h-1v2h-1q-2.505,9-5,18c-9.73,22.22-16.29,47.77-26,70v3h-1v3h-1v3h-1v3h-1v3c-10.15,23.18-16.86,49.79-27,73v3h-1v3h-1v3h-1v3h-1v3c-7.33,16.73-12.69,36.26-20,53v3h-1v3h-1v3h-1v3h-1v3h-1v2h-1c-0.33,2-.67,4-1,6h-1c-0.67,3-1.33,6-2,9h-1v2h-1v3h-1v3h-1v3h-1v3h-1v3h-1v2h-1v3h-1v3h-1v3h-1v3h-1v3h-1v2h-1c-0.67,3-1.33,6-2,9h-1c-0.67,3-1.33,6-2,9h-1v2h-1v3h-1v3h-1v3h-1v3h-1v3h-1v2h-1c-0.33,2-.67,4-1,6h-1c-0.67,3-1.33,6-2,9h-1v2h-1v3h-1v3h-1v3h-1v3h-1v3c-9.73,22.22-16.29,47.77-26,70v3h-1v3h-1v3h-1v3h-1v3h-1v2h-1q-2.505,9-5,18c-9.73,22.22-16.29,47.77-26,70v3h-1v3h-1v3h-1v3h-1v3h-1v2h-1c-0.67,3-1.33,6-2,9h-1c-0.33,2-.67,4-1,6h-1v2h-1v3h-1c-0.33,2-.67,4-1,6h-1c-0.33,2-.67,4-1,6-10.14,23.17-16.88,49.83-27,73v3h-1v3h-1v3h-1v3h-1v3h-1v2h-1c-0.33,2-.67,4-1,6h-1c-0.67,3-1.33,6-2,9h-1v2h-1v3h-1v3h-1v3h-1v3h-1v3h-1v2h-1v3h-1v3h-1v3h-1v3h-1v3h-1v2h-1c-0.33,2-.67,4-1,6h-1c-0.67,3-1.33,6-2,9h-1v2h-1v3h-1v3h-1v3h-1v3h-1v3h-1v2h-1c-0.67,3-1.33,6-2,9h-1c-0.67,3-1.33,6-2,9h-1v2h-1v3h-1v3h-1v3h-1v3h-1v3c-9.73,22.22-16.29,47.77-26,70v3h-1v3h-1v3h-1v3h-1v3h-1v2h-1v3h-1v3h-1v3h-1v3h-1v3c-7.75,17.7-13.26,38.27-21,56v3h-1v3h-1v3h-1v3h-1v3c-9.73,22.22-16.29,47.77-26,70v3h-1v3h-1v3h-1v3h-1v3c-7.75,17.7-13.26,38.27-21,56v3h-1v3h-1v3h-1v3h-1v3h-1v2h-1c-0.33,2-.67,4-1,6h-1c-0.67,3-1.33,6-2,9h-1v2h-1v3h-1v3h-1v3h-1v3h-1v3h-1v2h-1v3h-1v3h-1v3h-1v3h-1v3h-1v2h-1c-0.33,2-.67,4-1,6h-1c-0.67,3-1.33,6-2,9h-1v2h-1v3h-1v3h-1v3h-1v3h-1v3h-1v2h-1c-0.33,2-.67,4-1,6h-1c-0.67,3-1.33,6-2,9h-1v2h-1v3h-1v3h-1v3h-1v3h-1v3c-10.16,23.2-16.87,49.81-27,73v3h-1v3h-1v3h-1v3h-1v3h-1v2h-1v3h-1v3h-1v3h-1v3h-1v3c-7.33,16.73-12.69,36.26-20,53q-2.505,9-5,18h-1v2h-1c-0.33,2-.67,4-1,6h-1c-0.67,3-1.33,6-2,9h-1v2h-1v3h-1v3h-1v3h-1v3h-1v3h-1v2h-1v3h-1v3h-1v3h-1v3h-1v3h-1v2h-1c-0.33,2-.67,4-1,6h-1c-0.67,3-1.33,6-2,9h-1v2h-1v3h-1v3h-1v3h-1v3h-1v3h-1v2h-1c-0.33,2-.67,4-1,6h-1c-0.67,3-1.33,6-2,9h-1v2h-1v3h-1v3h-1v3h-1v3h-1v3c-10.14,23.17-16.88,49.83-27,73v3h-1v3h-1v3h-1v3h-1v3h-1v2h-1v3h-1v3h-1v3h-1v3h-1v3h-1v2h-1c-0.33,2-.67,4-1,6h-1c-0.67,3-1.33,6-2,9h-1v2h-1v3h-1v3h-1v3h-1v3h-1v3h-1v2h-1v3h-1v3h-1v3h-1v3h-1v3h-1v2h-1c-0.67,3-1.33,6-2,9-1.74,4.36-4.26,9.64-6,14v3h-1v3h-1v3h-1v3h-1v2h-1c-0.33,2-.67,4-1,6h-1c-0.67,3-1.33,6-2,9h-1v2h-1v3h-1v3h-1v3h-1v3h-1v3c-9.73,22.2-16.29,47.8-26,70v3h-1v3h-1v3h-1v3h-1v3h-1v2h-1v3h-1v3h-1v3h-1v3h-1v3h-1v2h-1c-0.67,3-1.33,6-2,9h-1c-0.33,2-.67,4-1,6h-1v3h-1v2h-1c-0.33,2-.67,4-1,6h-1c-0.67,3-1.33,6-2,9h-1v2h-1c-0.33,2-.67,4-1,6h-1c-0.67,3-1.33,6-2,9h-1v2h-1v3h-1v3h-1v3h-1v3h-1v3h-1v2h-1v3h-1v3h-1v3h-1v3h-1v3h-1v2h-1q-0.5,3-1,6h-1q-1,4.5-2,9h-1v2h-1v3h-1v3h-1v3h-1v3h-1v3h-1v2h-1q-0.5,3-1,6h-1q-1,4.5-2,9h-1v2h-1v3h-1v3h-1v3h-1v3h-1v3c-10.143,23.2-16.876,49.8-27,73v3h-1v3h-1v3h-1v3h-1v3h-1v2h-1q-0.5,3-1,6h-1v3h-1v3h-1v3h-1v2h-1v1h1q-0.5,3-1,6h-1v3h-1v2h-1q-0.5,3-1,6h-1q-1,4.5-2,9h-1v2h-1v3h-1v3h-1v3h-1v3h-1v3h-1v2h-1v3h-1v3h-1v3h-1v3h-1v3h-1v2h-1v3h-1v3h-1v3h-1v3h-1v3h-1v2h-1q-1,4.5-2,9h-1q-0.5,3-1,6h-1v2h-1v3h-1v3h-1v3h-1v3h-1v3h-1v2h-1q-1,4.5-2,9h-1q-0.5,3-1,6h-1v2h-1q-2.5,9-5,18c-7.325,16.7-12.688,36.3-20,53v3h-1v3h-1v3h-1v3h-1v3c-7.324,16.7-12.687,36.3-20,53v3h-1v3h-1v3h-1v3h-1v3c-10.155,23.2-16.874,49.8-27,73v3h-1v3h-1v3h-1v3h-1v3h-1v2h-1q-1,4.5-2,9h-1q-0.5,3-1,6h-1v2h-1v3h-1v3h-1v3h-1q-0.5,3-1,6h-1v2h-1v3h-1v3h-1v3h-1v3h-1v3h-1v2h-1v3h-1v3h-1v3h-1v3h-1v3c-7.182,16.5-11.976,35.1-19,52-28.885,2.6-62.421,1-93,1H3ZM2295,0H4804c0.1,5.955,2.45,10.485,4,15,0.33,2.667.67,5.334,1,8h1v4h1v4h1v4h1v4h1v3h1q1.995,10,4,20c7.59,20.868,11.72,45.717,19,67q1.005,6,2,12c4.08,11.849,6.94,26.1,11,38q1.005,6,2,12h1v3h1v4h1v4h1v4h1v4h1c0.33,2.333.67,4.667,1,7h1v4h1q1.005,6,2,12c3.77,10.448,6.39,23.41,10,34q1.005,6,2,12h1v3h1v4h1v4h1v4h1c0.33,2.666.67,5.334,1,8h1v3h1v4h1v4h1v4h1c0.33,2.666.67,5.334,1,8,7.71,21.395,11.35,46.6,19,68q1.995,10,4,20h1v3h1v4h1v4h1v4h1c0.33,2.667.67,5.334,1,8h1v3h1v4h1v4h1v4h1c0.33,2.667.67,5.334,1,8,8.17,22.672,11.88,49.3,20,72,0.33,2.666.67,5.334,1,8,2.44,7.111,4.56,15.839,7,23,0.33,2.666.67,5.334,1,8h1v3h1v4h1v4h1v4h1c0.33,2.666.67,5.334,1,8,8.63,23.943,12.76,51.849,21,76,0.33,2.666.67,5.334,1,8,2,5.832,4.01,13.164,6,19,0.33,2.667.67,5.334,1,8h1v3h1v4h1v4h1v4h1c0.33,2.667.67,5.334,1,8,8.17,22.672,11.88,49.3,20,72q1.995,10,4,20c7.72,21.413,11.33,46.566,19,68q1.995,10,4,20c5.97,16.556,9.3,36.295,15,53v4h1v4h1v4h1v4h1v3h1v4h1v4h1v4h1v4h1c0.33,2.334.67,4.668,1,7h1v4h1q1.005,6,2,12c3.77,10.45,6.39,23.41,10,34q1.005,6,2,12h1v3h1v4h1v4h1v4h1c0.33,2.67.67,5.33,1,8h1v3h1v4h1v4h1v4h1c0.33,2.67.67,5.33,1,8,7.71,21.4,11.35,46.6,19,68v4h1v4h1v4h1v4c4.07,11.85,6.95,26.1,11,38q1.005,6,2,12c3.77,10.45,6.39,23.41,10,34q1.005,6,2,12c3.31,9.18,5.82,20.67,9,30q1.005,6,2,12h1v3h1v4h1v4h1v4h1v4h1c0.33,2.33.67,4.67,1,7h1v4h1q1.005,6,2,12h1v4h1v3h1v4h1v4h1v4h1v4c7.85,22.86,11.89,49.32,20,72v4h1v4h1v4h1v4c4.07,11.85,6.95,26.1,11,38q1.005,6,2,12c3.77,10.45,6.39,23.41,10,34q1.005,6,2,12h1v3h1v4h1v4h1v4h1v4h1c0.33,2.33.67,4.67,1,7h1v4h1q1.005,6,2,12h1v3h1v4h1v4h1v4h1v4h1c0.33,2.33.67,4.67,1,7h1v4h1q1.005,6,2,12c8.29,24.14,12.42,52.02,21,76,0.33,2.67.67,5.33,1,8h1v4h1v4h1v4h1v3h1q1.005,6,2,12c4.07,11.85,6.95,26.1,11,38q1.005,6,2,12c3.77,10.45,6.39,23.41,10,34q1.005,6,2,12h1v3h1v4h1v4h1v4h1v4h1c0.33,2.33.67,4.67,1,7h1v4h1q1.005,6,2,12c7.84,22.84,11.88,49.3,20,72,0.33,2.67.67,5.33,1,8h1v4h1v4h1v4h1v3h1c0.33,2.67.67,5.33,1,8,2.89,8.44,5.12,18.55,8,27,0.33,2.67.67,5.33,1,8h1v3h1v4h1v4h1v4h1v4h1c0.33,2.33.67,4.67,1,7h1v4h1q1.005,6,2,12h1v3h1v4h1v4h1v4h1c0.33,2.67.67,5.33,1,8,8.17,22.67,11.88,49.3,20,72,0.33,2.67.67,5.33,1,8,2.89,8.44,5.12,18.55,8,27,0.33,2.67.67,5.33,1,8,7.7,21.37,11.34,46.58,19,68q2.505,11.505,5,23h1c0.33,2.67.67,5.33,1,8h1v4h1v4h1v4h1v3h1q1.995,10.005,4,20h1v3h1v4h1v4h1v4h1c0.33,2.67.67,5.33,1,8,7.7,21.37,11.34,46.58,19,68q1.995,10.005,4,20c7.71,21.4,11.35,46.6,19,68q1.995,10.005,4,20c5.97,16.56,9.3,36.29,15,53v4h1v4h1v4h1v4c3.77,10.45,6.39,23.41,10,34q1.005,6,2,12c3.31,9.18,5.82,20.67,9,30q1.005,6,2,12h1v3h1v4h1v4h1v4h1c0.33,2.67.67,5.33,1,8h1v3h1v4h1v4h1v4h1c0.33,2.67.67,5.33,1,8,8.17,22.67,11.88,49.3,20,72v4h1v4h1v4h1v4c5.51,15.28,8.53,33.71,14,49q1.995,10.005,4,20c5.97,16.56,9.3,36.29,15,53v4h1v4h1v4h1v4c5.5,15.27,8.74,33.57,14,49v4h1v4h1v4h1v4c3.76,10.45,6.39,23.41,10,34q1.005,6,2,12h1v3h1v4h1v4h1v4h1v4h1c0.33,2.33.67,4.67,1,7h1v4h1q1.005,6,2,12c7.84,22.84,11.88,49.29,20,72,0.33,2.67.67,5.33,1,8h1v4h1v4h1v4h1v3h1q1.995,10.005,4,20h1v3h1v4h1v4h1v4h1c0.33,2.67.67,5.33,1,8,7.7,21.42,11.35,46.55,19,68v4c2.07,6.04,3.55,14.12,6,20h1c0.67-3.33,1.33-6.67,2-10h1v-4h1v-3h1c0.33-2.33.67-4.67,1-7h1c0.33-2.33.67-4.67,1-7h1c0.33-2.33.67-4.67,1-7h1v-4h1v-3h1v-3h1v-4c5.15-14.15,8.89-30.83,14-45v-4h1v-3h1v-4h1v-3h1c0.33-2.33.67-4.67,1-7h1c0.67-3.33,1.33-6.67,2-10h1c0.33-2.33.67-4.67,1-7h1v-4c3.49-9.62,6.53-21.37,10-31v-4h1v-3h1v-4c12.42-34.24,19.63-72.76,32-107v-4h1v-3h1c0.33-2.33.67-4.67,1-7h1c0.33-2.33.67-4.67,1-7h1v-4c8.82-24.33,14.25-51.68,23-76v-4h1v-3h1c0.33-2.33.67-4.67,1-7h1c0.33-2.33.67-4.67,1-7h1v-4c8.79-24.27,14.25-51.66,23-76v-4h1v-3h1c0.33-2.33.67-4.67,1-7h1c0.33-2.33.67-4.67,1-7h1v-4c7.12-19.58,11.91-42.29,19-62q1.995-9,4-18c5.47-15.03,9.55-32.85,15-48q1.995-9,4-18c3.86-10.66,7.16-23.33,11-34v-4h1v-3h1v-4h1v-3h1c0.33-2.33.67-4.67,1-7h1c0.33-2.33.67-4.67,1-7h1c0.33-2.33.67-4.67,1-7h1v-4h1v-3h1v-4c12.4-34.23,19.68-72.74,32-107v-4h1v-3h1v-4c4.3-11.88,7.72-26.11,12-38v-4h1v-3h1v-4c3.85-10.61,7.16-23.32,11-34v-4h1v-3h1v-4h1v-3h1c0.33-2.33.67-4.67,1-7h1c0.33-2.33.67-4.67,1-7h1c0.33-2.33.67-4.67,1-7h1v-4h1v-3h1v-4c10.75-29.69,17.28-63.31,28-93v-4h1v-3h1v-4c4.3-11.88,7.72-26.11,12-38q1.995-9,4-18c5.47-15.1,9.53-32.8,15-48v-4h1v-3h1v-4c4.68-12.91,8.38-28.15,13-41v-4h1v-3h1v-4c3.49-9.62,6.54-21.37,10-31v-4h1v-3h1v-4c13.23-36.51,20.86-77.45,34-114v-4h1v-3h1v-4c4.3-11.88,7.72-26.11,12-38v-4h1v-3h1v-4h1v-3h1v-3h1c0.33-2.33.67-4.67,1-7h1c0.33-2.33.67-4.67,1-7h1c0.33-2.33.67-4.67,1-7h1c0.33-2.33.67-4.67,1-7h1v-4h1v-3h1v-4h1v-3h1c0.33-2.33.67-4.67,1-7h1c0.33-2.33.67-4.67,1-7h1c0.33-2.33.67-4.67,1-7h1v-4h1v-3h1v-4c11.61-31.93,18.49-68.01,30-100v-4h1v-3h1v-4c3.49-9.62,6.54-21.37,10-31v-4h1v-3h1v-4c10.75-29.69,17.28-63.31,28-93v-4h1v-3h1v-4h1v-3h1c0.33-2.33.67-4.67,1-7h1c0.33-2.33.67-4.67,1-7h1c0.33-2.33.67-4.67,1-7h1v-4h1v-3h1v-4h1v-3h1c0.33-2.33.67-4.67,1-7h1c0.33-2.33.67-4.67,1-7h1c0.33-2.33.67-4.67,1-7h1v-4c9.96-27.37,16.11-58.6,26-86v-4h1v-3h1c0.33-2.33.67-4.67,1-7h1c0.33-2.33.67-4.67,1-7h1c0.33-2.33.67-4.67,1-7h1v-4h1v-3h1c0.33-2.33.67-4.67,1-7h1c0.33-2.33.67-4.67,1-7h1c0.33-2.33.67-4.67,1-7h1v-4c8.77-24.22,14.25-51.68,23-76q1.995-9,4-18c7.12-19.58,11.91-42.29,19-62q1.995-9,4-18c6.3-17.3,10.73-37.57,17-55q1.995-9,4-18c3.85-10.61,7.16-23.32,11-34v-4h1v-3h1v-4h1v-3h1c0.33-2.33.67-4.67,1-7h1c0.33-2.33.67-4.67,1-7h1c0.33-2.33.67-4.67,1-7h1v-4h1v-3h1v-4c9.93-27.41,16.1-58.584,26-86v-4h1v-3h1v-4c5.13-14.161,8.9-30.827,14-45q1.995-9,4-18c11.61-31.925,18.49-68.01,30-100v-4h1v-3h1c0.33-2.334.67-4.667,1-7h1c0.33-2.334.67-4.667,1-7h1v-4c10.44-28.824,16.62-61.127,27-90v-4h1v-3h1c0.33-2.334.67-4.667,1-7h1c0.33-2.334.67-4.667,1-7h1v-4c7.12-19.58,11.91-42.292,19-62q1.995-9,4-18c6.3-17.3,10.73-37.57,17-55q1.995-9,4-18c3.85-10.614,7.16-23.322,11-34v-4h1v-3h1v-4h1v-3h1c0.33-2.332.67-4.666,1-7h1c0.33-2.332.67-4.666,1-7h1c0.33-2.333.67-4.668,1-7h1v-4h1v-3h1v-4c10.75-29.687,17.28-63.309,28-93v-4h1v-3h1v-4c5.13-14.162,8.9-30.827,14-45v-4h1v-3h1v-4h1v-3h1q1.005-5,2-10h1c0.33-2.333.67-4.667,1-7h1c0.33-2.333.67-4.667,1-7h1v-4h1v-3h1c0.33-2.334.67-4.667,1-7h1c0.33-2.334.67-4.667,1-7h1c0.33-2.334.67-4.667,1-7h1v-4h1v-3h1v-4c11.23-31.031,17.82-65.876,29-97V69h1V66h1V63h1V59c4.29-11.885,7.73-26.105,12-38V17h1V14h1V10h1c0.33-2.333.67-4.667,1-7h1c2.07-1.8,8.28-1,12-1H9276c-0.62,3.492-2.82,7.062-4,10-0.33,2-.67,4-1,6h-1c-0.67,3-1.33,6-2,9h-1v3h-1v3h-1v3h-1v3h-1v3h-1c-0.33,2-.67,4-1,6h-1c-0.33,2-.67,4-1,6h-1l-6,21c-8.86,22.128-15.16,46.863-24,69-0.67,3-1.33,6-2,9h-1v3h-1v3h-1v3h-1v3h-1v3h-1v3h-1c-0.33,2-.67,4-1,6h-1c-0.33,2-.67,4-1,6-12.35,30.9-20.67,65.092-33,96-0.33,2-.67,4-1,6h-1v3h-1v3h-1v3h-1v3h-1v3h-1v3h-1v3h-1c-0.67,3-1.33,6-2,9h-1v3h-1v3h-1v3h-1v3h-1v3h-1c-0.33,2-.67,4-1,6h-1c-0.33,2-.67,4-1,6h-1c-0.67,3-1.33,6-2,9h-1v2h-1v3h-1v3h-1v3h-1v3h-1v3h-1v3h-1v3h-1c-0.33,2-.67,4-1,6-10.02,25.067-17,52.926-27,78q-3,10.5-6,21c-8.84,22.136-15.17,46.858-24,69q-2.505,9-5,18c-6.89,17.25-12.12,36.747-19,54v3h-1v3h-1v3h-1v3h-1v3c-5.33,13.34-9.68,28.658-15,42v3h-1v3h-1v3h-1v3c-12.56,31.435-21.39,66.39-34,98-0.33,2-.67,4-1,6h-1v3h-1v3h-1v3h-1v3h-1v3h-1c-0.33,2-.67,4-1,6h-1v3h-1c-0.67,3-1.33,6-2,9-4.16,10.407-7.85,22.592-12,33-0.67,3-1.33,6-2,9-4.55,11.384-8.46,24.613-13,36-0.67,3-1.33,6-2,9-4.55,11.384-8.46,24.613-13,36v3h-1v3h-1v3h-1v3c-3.77,9.427-7.24,20.57-11,30-0.67,3-1.33,6-2,9-10.34,25.87-17.7,54.18-28,80-0.33,2-.67,4-1,6h-1v3h-1v3h-1v3h-1v3h-1v3h-1v3h-1v3h-1v3h-1v3h-1v3c-5.33,13.34-9.68,28.66-15,42-0.67,3-1.33,6-2,9-4.16,10.41-7.85,22.59-12,33-0.67,3-1.33,6-2,9-13.13,32.85-21.89,69.14-35,102-0.33,2-.67,4-1,6h-1v3h-1v3h-1v3h-1v3h-1v3h-1v3h-1v3h-1c-0.67,3-1.33,6-2,9-4.55,11.38-8.46,24.61-13,36v3h-1v3h-1v3h-1v3h-1v2h-1c-0.67,3-1.33,6-2,9-3.77,9.43-7.24,20.57-11,30v3h-1v3h-1v3h-1v3c-13.51,33.82-22.51,71.17-36,105-0.33,2-.67,4-1,6h-1v3h-1v3h-1v3h-1v3h-1v3h-1v3h-1v3h-1c-0.67,3-1.33,6-2,9h-1v3h-1v3h-1v3h-1v3h-1v3h-1c-0.33,2-.67,4-1,6h-1c-0.33,2-.67,4-1,6h-1c-0.33,2-.67,4-1,6-11.96,29.93-20.06,63.07-32,93-0.33,2-.67,4-1,6h-1v3h-1v3h-1v3h-1v3h-1v3h-1v3h-1v3c-9.48,23.54-16.52,50.22-26,74l-6,21c-7.28,18.23-12.73,38.77-20,57v3h-1v3h-1v3h-1v3h-1v3c-5.72,14.32-10.29,30.68-16,45v3h-1v3h-1v3h-1v3c-4.55,11.38-8.46,24.61-13,36-0.67,3-1.33,6-2,9h-1v3h-1v3h-1v3h-1v3h-1v3h-1c-0.33,2-.67,4-1,6h-1c-0.33,2-.67,4-1,6h-1c-0.67,3-1.33,6-2,9q-16.005,45.99-32,92c-0.33,2-.67,4-1,6h-1v3h-1v3h-1v3h-1v3h-1v3h-1c-0.33,2-.67,4-1,6h-1v3c-11.96,29.93-20.06,63.06-32,93-0.33,2-.67,4-1,6h-1v3h-1v3h-1v3h-1v3h-1v3h-1v3h-1c-0.67,3-1.33,6-2,9-4.55,11.38-8.46,24.61-13,36-0.67,3-1.33,6-2,9-4.55,11.38-8.46,24.61-13,36v3h-1v3h-1v3h-1v3c-3.77,9.43-7.24,20.57-11,30-0.67,3-1.33,6-2,9-13.34,33.38-22.62,70.44-36,104v3h-1v3h-1v3h-1v3c-5.33,13.34-9.68,28.66-15,42-0.67,3-1.33,6-2,9-11.96,29.93-20.06,63.07-32,93-0.33,2-.67,4-1,6h-1v3h-1v3h-1v3h-1v3h-1v3h-1v3h-1q-4.995,16.5-10,33c-4.16,10.41-7.85,22.59-12,33v3h-1v3h-1v3h-1v3h-1v2h-1c-0.33,2-.67,4-1,6h-1v3h-1v3h-1v3h-1v3h-1v3h-1c-0.33,2-.67,4-1,6h-1c-0.67,3-1.33,6-2,9-11.96,29.93-20.06,63.06-32,93v3h-1v3h-1v3h-1v3c-5.33,13.34-9.68,28.66-15,42v3h-1v3h-1v3h-1v3h-1v3c-7.28,18.23-12.73,38.77-20,57l-6,21c-9.5,23.77-16.53,50.46-26,74v3h-1v3h-1v3h-1v3h-1v3h-1v3h-1v3h-1c-0.33,2-.67,4-1,6-11.58,28.98-19.44,61.02-31,90-0.67,3-1.33,6-2,9h-1v3h-1v3h-1v3h-1v3h-1v3h-1c-0.33,2-.67,4-1,6h-1c-0.33,2-.67,4-1,6h-1c-0.33,2-.67,4-1,6-13.51,33.82-22.51,71.17-36,105-0.33,2-.67,4-1,6h-1v3h-1v3h-1v3h-1v3h-1v3h-1c-0.33,2-.67,4-1,6h-1v3h-1c-0.67,3-1.33,6-2,9-3.77,9.43-7.24,20.57-11,30-0.67,3-1.33,6-2,9h-1v2h-1v3h-1v3h-1v3h-1v3c-4.55,11.38-8.46,24.61-13,36-0.67,3-1.33,6-2,9-4.16,10.41-7.85,22.59-12,33-0.67,3-1.33,6-2,9-12.74,31.87-21.28,67.12-34,99-0.33,2-.67,4-1,6h-1v3h-1v3h-1v3h-1v3h-1v3h-1v3h-1v3h-1v3h-1v3h-1v3h-1v3h-1v3c-6.5,16.27-11.51,34.72-18,51v3h-1v3h-1v3h-1v3c-4.16,10.41-7.85,22.59-12,33v3h-1v3h-1v3h-1v3h-1v2h-1c-0.67,3-1.33,6-2,9h-1v3h-1v3h-1v3h-1v3h-1v3h-1c-0.33,2-.67,4-1,6h-1c-0.33,2-.67,4-1,6h-1c-0.67,3-1.33,6-2,9-11.96,29.93-20.06,63.07-32,93-0.33,2-.67,4-1,6h-1v3h-1v3h-1v3h-1v3h-1v3h-1v3h-1v3h-1v3h-1v3h-1v3h-1v3h-1v3c-6.5,16.27-11.51,34.72-18,51q-2.505,9-5,18c-9.24,23.11-15.78,48.88-25,72-0.33,2-.67,4-1,6h-1v3h-1v3h-1v3h-1v3h-1v3h-1v3c-7.64,17.46-12.86,38.08-20,56v3h-1v3h-1v3h-1v3h-1v3c-4.16,10.41-7.85,22.59-12,33-0.67,3-1.33,6-2,9-13.13,32.85-21.9,69.14-35,102-0.33,2-.67,4-1,6h-1v3h-1v3h-1v3h-1v3h-1v3h-1v3h-1v3h-1c-0.67,3-1.33,6-2,9-4.16,10.41-7.85,22.59-12,33-0.33,2-.67,4-1,6-9.54,23.87-16.54,50.29-26,74l-6,21c-7.67,19.2-13.34,40.79-21,60v3h-1v3h-1v3h-1v3h-1v3c-5.72,14.32-10.29,30.68-16,45v3h-1v3h-1v3h-1v3c-4.55,11.38-8.46,24.61-13,36-0.67,3-1.33,6-2,9-3.77,9.43-7.24,20.57-11,30-0.67,3-1.33,6-2,9-10.02,25.07-17,52.93-27,78-0.33,2-.67,4-1,6h-1c-0.67,3-1.33,6-2,9h-1v2h-1v3h-1v3h-1c-0.33,2-.67,4-1,6h-1v3h-1v3h-1v3h-1v3h-1v3h-1v3h-1v3c-11.96,29.93-20.06,63.06-32,93q-4.995,16.5-10,33c-11.96,29.93-20.06,63.07-32,93-0.33,2-.67,4-1,6h-1v3h-1v3h-1v3h-1v3h-1v3h-1v3h-1v3h-1q-4.995,16.5-10,33c-9.17,22.95-15.85,48.06-25,71l-6,21h-1c-0.33,2-.67,4-1,6h-1v3h-1v3h-1v3h-1v3h-1v3h-1v3h-1v3h-1c-0.67,3-1.33,6-2,9h-1v3h-1v3h-1v3h-1v3h-1v3h-1v3h-1c-0.33,2-.67,4-1,6h-1c-0.33,2-.67,4-1,6-11.19,28-18.83,58.99-30,87-0.33,2-.67,4-1,6h-1v3h-1v3h-1v3h-1v3h-1v3h-1v3h-1c-0.33,2-.67,4-1,6h-1v3h-1v3h-1v3h-1v3h-1v3h-1c-0.33,2-.67,4-1,6h-1v3c-8.06,20.18-13.95,42.81-22,63l-6,21h-1v2h-1l-6,21c-7.67,19.2-13.34,40.79-21,60l-6,21c-6.89,17.25-12.12,36.75-19,54v3h-1v3h-1v3h-1v3h-1v3c-5.33,13.34-9.68,28.66-15,42v3h-1v3h-1v3h-1v3c-4.16,10.41-7.85,22.59-12,33-0.67,3-1.33,6-2,9h-1v3h-1v3h-1v3h-1v3h-1v3h-1c-0.33,2-.67,4-1,6h-1c-0.33,2-.67,4-1,6h-1c-0.67,3-1.33,6-2,9q-16.005,45.99-32,92c-0.33,2-.67,4-1,6h-1v3h-1v3h-1v3h-1v3h-1v3h-1c-0.33,2-.67,4-1,6h-1v3c-10.8,27.02-18.22,56.97-29,84-0.33,2-.67,4-1,6h-1v3h-1v3h-1v3h-1v3h-1v3h-1v3h-1q-4.995,16.5-10,33c-8.45,21.16-14.56,44.84-23,66q-2.505,9-5,18c-4.16,10.41-7.85,22.59-12,33v3h-1v3h-1v3h-1v3h-1v2h-1c-0.67,3-1.33,6-2,9h-1v3h-1v3h-1v3h-1v3h-1v3h-1v3h-1c-0.33,2-.67,4-1,6h-1c-0.67,3-1.33,6-2,9-11.96,29.93-20.06,63.06-32,93-0.33,2-.67,4-1,6h-1v3h-1v3h-1v3h-1v3h-1v3h-1v3h-1v3h-1v3h-1v3h-1v3h-1v3c-6.5,16.27-11.51,34.72-18,51l-6,21c-9.24,23.11-15.78,48.88-25,72-0.33,2-.67,4-1,6h-1v3h-1v3h-1v3h-1v3h-1v3h-1v3h-1v3c-7.64,17.46-12.86,38.08-20,56v3h-1v3h-1v3h-1v3h-1v3c-4.16,10.41-7.85,22.59-12,33-0.67,3-1.33,6-2,9-13.13,32.85-21.9,69.14-35,102-0.33,2-.67,4-1,6h-1v3h-1v3h-1v3h-1v3h-1v3h-1v3h-1v3h-1c-0.67,3-1.33,6-2,9-3.77,9.43-7.24,20.57-11,30-0.33,2-.67,4-1,6-4.16,10.41-7.85,22.59-12,33-0.67,3-1.33,6-2,9-11.42,28.59-19.53,60.24-31,89-0.33,2-.67,4-1,6h-1v3h-1v3h-1v3h-1v3h-1v3h-1v3h-1v3h-1c-0.67,3-1.33,6-2,9-3.77,9.43-7.24,20.57-11,30-0.33,2-.67,4-1,6-12.34,30.9-20.68,65.09-33,96-0.33,2-.67,4-1,6h-1v3h-1v3h-1v3h-1v3h-1v3h-1v3h-1v3c-8.05,20.19-13.97,42.81-22,63q-2.505,9-5,18h-1v3h-1v2h-1c-0.67,3-1.33,6-2,9h-1v3h-1v3h-1v3h-1v3h-1v3h-1c-0.33,2-.67,4-1,6h-1c-0.33,2-.67,4-1,6h-1v3h-1v3h-1v3h-1v3h-1v3h-1v3h-1v3h-1v3h-1v3h-1v3h-1c-0.33,2-.67,4-1,6h-1v3h-1v112h1c0.33,2.67.67,5.33,1,8,6.62,18.55,10.37,40.4,17,59v4c1.55,4.53,3.48,10.54,5,15v4c8.41,23.4,12.64,50.62,21,74,0.33,2.67.67,5.33,1,8,1.53,4.45,3.45,10.47,5,15v4c8.44,23.42,12.62,50.58,21,74l3,15h1c0.33,2.67.67,5.33,1,8,1.53,4.45,3.45,10.47,5,15v4c10.16,28.17,14.89,60.76,25,89v4c1.54,4.45,3.45,10.47,5,15v4c8.44,23.41,12.62,50.58,21,74q1.005,6,2,12c6.7,18.57,10.36,40.46,17,59q1.005,6,2,12c5.41,15.01,8.62,32.97,14,48,0.33,2.67.67,5.33,1,8,3.66,10.16,6.36,22.83,10,33q1.005,6,2,12h1v3h1v4h1v4h1c0.33,2.33.67,4.67,1,7h1v4h1c0.33,2.67.67,5.33,1,8,9.69,26.89,14.37,58.08,24,85,0.33,2.67.67,5.33,1,8h1v4h1v3h1v4h1v4h1c0.33,2.33.67,4.67,1,7h1q1.005,6,2,12h1v3h1v4h1v4h1c0.33,2.33.67,4.67,1,7h1v4h1c0.33,2.67.67,5.33,1,8h1v3h1q1.005,5.505,2,11h1v4h1q1.005,5.505,2,11h1q1.005,6,2,12h1v3h1v4h1v4h1c0.33,2.33.67,4.67,1,7h1v4h1c0.33,2.67.67,5.33,1,8h1v3h1q1.005,5.505,2,11h1v4h1c0.33,2.67.67,5.33,1,8,8.43,23.39,12.63,50.63,21,74q1.005,6,2,12c3.66,10.16,6.36,22.83,10,33q1.005,6,2,12h1v3h1q1.005,5.505,2,11h1v4h1q1.005,5.505,2,11h1q1.005,6,2,12h1v3h1v4h1v4h1c0.33,2.33.67,4.67,1,7h1v4h1c0.33,2.67.67,5.33,1,8h1v3h1q1.005,5.505,2,11h1v4h1c0.33,2.67.67,5.33,1,8,8.43,23.39,12.63,50.63,21,74q1.005,6,2,12h1v3h1v4h1v4h1c0.33,2.33.67,4.67,1,7h1v4h1c0.33,2.67.67,5.33,1,8h1v3h1v4h1v4h1c0.33,2.33.67,4.67,1,7h1c0.33,2.67.67,5.33,1,8h1v3h1v4h1v4h1c0.33,2.33.67,4.67,1,7h1v4h1c0.33,2.67.67,5.33,1,8,8.44,23.41,12.62,50.58,21,74q1.005,6,2,12h1v3h1v4h1v4h1c0.33,2.33.67,4.67,1,7h1v4h1c0.33,2.67.67,5.33,1,8h1v3h1q1.005,5.505,2,11h1v4h1c0.33,2.67.67,5.33,1,8,10.18,28.23,14.9,60.77,25,89,0.33,2.67.67,5.33,1,8,1.53,4.45,3.45,10.47,5,15v4c8.43,23.39,12.61,50.56,21,74,0.33,2.67.67,5.33,1,8,1.53,4.45,3.45,10.47,5,15v4c6.68,18.53,10.35,40.41,17,59q1.005,6,2,12c6.68,18.53,10.35,40.41,17,59q1.005,6,2,12c4.96,13.76,8.07,30.22,13,44q1.005,6,2,12h1v3h1v4h1v4h1c0.33,2.33.67,4.67,1,7h1v4h1c0.33,2.67.67,5.33,1,8h1v3h1q1.005,5.505,2,11h1v4h1c0.33,2.67.67,5.33,1,8,8.43,23.39,12.63,50.63,21,74,0.33,2.67.67,5.33,1,8h1v4h1v3h1v4h1v4h1c0.33,2.33.67,4.67,1,7h1q1.005,6,2,12h1v3h1v4h1v4h1c0.33,2.33.67,4.67,1,7h1q1.005,5.505,2,11h1q1.005,6,2,12c3.66,10.16,6.36,22.83,10,33q1.005,6,2,12h1v3h1v4h1v4h1c0.33,2.33.67,4.67,1,7h1q1.005,5.505,2,11h1q1.005,6,2,12h1v3h1v4h1v4h1c0.33,2.33.67,4.67,1,7h1v4h1c0.33,2.67.67,5.33,1,8h1v3h1v4h1v4h1c0.33,2.33.67,4.67,1,7h1c0.33,2.67.67,5.33,1,8,8.43,23.39,12.64,50.63,21,74q1.005,6,2,12c5.41,15.01,8.62,32.97,14,48q1.005,6,2,12c9.69,26.89,14.37,58.08,24,85,0.33,2.7.67,5.3,1,8,1.53,4.5,3.45,10.5,5,15v4c8.44,23.4,12.62,50.6,21,74q1.005,6,2,12c6.7,18.6,10.33,40.4,17,59q1.005,6,2,12c4.95,13.7,8.09,30.3,13,44q1.005,6,2,12h1v3h1v4h1v4h1c0.33,2.3.67,4.7,1,7h1v4h1c0.33,2.7.67,5.3,1,8h1v3h1v4h1v4h1c0.33,2.3.67,4.7,1,7h1c0.33,2.7.67,5.3,1,8,10.17,28.2,14.91,60.8,25,89q1.005,6,2,12c8.44,23.4,12.62,50.6,21,74,0.33,2.7.67,5.3,1,8,1.53,4.5,3.45,10.5,5,15v4h1v3h1v4h1v4h1c0.33,2.3.67,4.7,1,7h1v4h1c0.33,2.7.67,5.3,1,8h1v3h1c0.67,3.7,1.33,7.3,2,11h1v4h1c0.33,2.7.67,5.3,1,8,8.44,23.4,12.62,50.6,21,74,0.33,2.7.67,5.3,1,8h1v4h1v3h1v4h1v4h1c0.33,2.3.67,4.7,1,7h1q1.005,6,2,12h1v3h1v4h1v4h1c0.33,2.3.67,4.7,1,7h1c0.67,3.7,1.33,7.3,2,11h1q1.005,6,2,12c8.42,23.4,12.65,50.6,21,74l3,15h1l1,10h1v4h1v3h1c0.67,3.7,1.33,7.3,2,11h1q1.005,6,2,12h1c0.67,3.7,1.33,7.3,2,11H4937v-1h-1c-0.11-6-2.41-11.3-4-16v-4h-1v-4h-1v-4h-1v-4h-1v-5h-1v-4h-1v-2h-1q-1.005-6-2-12c-4.36-12.7-6.67-28.3-11-41-2.67-12.3-5.33-24.7-8-37-1.62-4.7-3.4-11.3-5-16v-4h-1c-0.67-4.3-1.33-8.7-2-13-2.95-8.6-5.2-19.3-8-28v-5c-7.56-23.2-11.52-49.8-19-73-1-5.7-2-11.3-3-17-6.57-19.2-9.79-41.7-16-61v-5h-1v-4h-1v-4h-1v-4h-1v-4h-1v-4h-1v-4h-1v-4h-1v-4h-1v-5c-6.69-20.5-10.04-44.5-17-65-0.67-4.3-1.33-8.7-2-13-6.69-20.5-10.04-44.6-17-65-0.67-4.3-1.33-8.7-2-13-3.25-10-5.78-22-9-32-1-5.7-2-11.3-3-17-2.51-7.3-4.63-16.6-7-24-1-5.7-2-11.3-3-17-1.61-4.7-3.4-11.3-5-16v-4h-1c-0.67-4.3-1.33-8.7-2-13-2.95-8.6-5.2-19.3-8-28v-5c-7.12-21.9-10.94-47.1-18-69-0.33-3-.67-6-1-9-3.39-9.9-5.78-22-9-32v-5c-2.82-8.7-5.07-19.4-8-28-0.33-3-.67-6-1-9-7.11-21.84-10.62-47.25-18-69-0.33-3-.67-6-1-9h-1v-4h-1v-4h-1v-4h-1q-2.505-12-5-24h-1q-1.005-6.495-2-13c-5.23-15.26-7.8-33.7-13-49q-1.005-6-2-12c-3.97-11.62-6.1-25.51-10-37-0.33-3-.67-6-1-9-3.25-9.97-5.63-22.08-9-32-0.33-3-.67-6-1-9-2.82-8.67-5.07-19.37-8-28-0.33-3-.67-6-1-9-7.54-23.16-11.52-49.8-19-73q-1.005-6.495-2-13c-6.12-17.86-8.91-39.11-15-57q-1.005-6.495-2-13c-3.25-9.97-5.78-22.02-9-32v-5c-3.25-9.97-5.63-22.08-9-32-0.33-3-.67-6-1-9-2.82-8.67-5.07-19.37-8-28-0.33-3-.67-6-1-9-7.54-23.16-11.52-49.8-19-73-0.33-3-.67-6-1-9-3.39-9.91-5.78-22.02-9-32v-5c-2.82-8.67-5.07-19.37-8-28-0.33-3-.67-6-1-9-7.54-23.16-11.52-49.8-19-73-0.33-3-.67-6-1-9-3.39-9.91-5.78-22.02-9-32v-5c-7.11-21.85-10.62-47.26-18-69-0.33-3-.67-6-1-9h-1v-4h-1v-4h-1v-4h-1v-4h-1v-4h-1v-4h-1v-4h-1v-4h-1v-5c-7.11-21.84-10.62-47.25-18-69-0.33-3-.67-6-1-9h-1v-4h-1v-4h-1v-4h-1v-4h-1v-4h-1v-4h-1v-4h-1v-4h-1v-5c-6.69-20.54-10.04-44.53-17-65q-1.005-6.495-2-13c-6.69-20.54-10.04-44.53-17-65q-1.005-6.495-2-13c-3.25-9.97-5.63-22.08-9-32-0.33-3-.67-6-1-9-2.82-8.67-5.07-19.37-8-28-0.33-3-.67-6-1-9-7.11-21.84-10.62-47.25-18-69-0.33-3-.67-6-1-9h-1v-4h-1v-4h-1v-4h-1q-2.505-12-5-24h-1v-5h-1v-4h-1v-4h-1v-4h-1v-4h-1v-4h-1v-4h-1v-4h-1v-4h-1c-0.33-3-.67-6-1-9-6.99-20.46-10.05-44.51-17-65-0.33-3-.67-6-1-9h-1v-4h-1v-4h-1v-4h-1c-0.33-2.67-.67-5.33-1-8h-1v-4h-1v-4h-1v-4h-1v-4h-1v-5c-7.11-21.85-10.62-47.26-18-69-0.33-3-.67-6-1-9h-1v-4h-1v-4h-1v-4h-1v-4h-1v-4h-1v-4h-1v-4h-1v-4h-1v-5c-7.11-21.85-10.62-47.26-18-69-0.33-3-.67-6-1-9h-1v-4h-1v-4h-1v-4h-1v-4h-1v-4h-1v-4h-1v-4h-1v-4h-1v-5c-6.69-20.54-10.04-44.53-17-65q-1.005-6.495-2-13c-6.69-20.54-10.04-44.53-17-65q-1.005-6.495-2-13c-3.25-9.97-5.63-22.08-9-32-0.33-3-.67-6-1-9-2.82-8.67-5.07-19.37-8-28-0.33-3-.67-6-1-9-7.11-21.84-10.62-47.25-18-69-0.33-3-.67-6-1-9h-1v-4h-1v-4h-1v-4h-1q-2.505-12-5-24h-1c-0.33-3-.67-6-1-9-2.94-8.62-5.2-19.33-8-28v-5c-7.54-23.16-11.52-49.8-19-73v-5c-2.4-7.36-4.51-16.68-7-24-0.33-2.67-.67-5.33-1-8h-1c-0.33-3-.67-6-1-9-3.39-9.91-5.78-22.02-9-32v-5c-7.11-21.85-10.62-47.26-18-69-0.33-3-.67-6-1-9h-1v-4h-1v-4h-1v-4h-1v-4h-1v-4h-1v-4h-1v-4h-1v-4h-1v-5c-7.54-23.16-11.52-49.8-19-73v-5h-1v-4c-1.61-4.71-3.4-11.29-5-16v-4h-1v-4h-1v-4h-1v-4h-1v-5c-6.69-20.55-10.04-44.55-17-65q-1.005-6.495-2-13c-6.69-20.55-10.04-44.55-17-65q-1.005-6.495-2-13c-3.25-9.97-5.78-22.02-9-32-0.33-3-.67-6-1-9-2.95-8.63-5.07-19.36-8-28-0.33-3-.67-6-1-9-2.82-8.67-5.07-19.37-8-28-0.33-3-.67-6-1-9-7.55-23.18-11.53-49.82-19-73v-5h-1v-4h-1v-4h-1v-4h-1v-4h-1v-4h-1v-4h-1v-4h-1v-4h-1c-0.33-3-.67-6-1-9-6.99-20.46-10.05-44.51-17-65-0.33-3-.67-6-1-9h-1v-4h-1v-4h-1v-4h-1c-0.33-2.67-.67-5.33-1-8h-1v-4h-1v-4h-1v-4h-1v-4h-1v-5c-7.11-21.85-10.62-47.26-18-69-0.33-3-.67-6-1-9h-1v-4h-1v-4h-1v-4h-1v-4h-1v-4h-1v-4h-1v-4h-1v-4h-1v-5c-6.69-20.54-10.04-44.53-17-65q-1.005-6.495-2-13c-6.69-20.54-10.04-44.53-17-65q-1.005-6.495-2-13c-3.25-9.97-5.63-22.08-9-32-0.33-3-.67-6-1-9-2.82-8.67-5.07-19.37-8-28-0.33-3-.67-6-1-9-2.82-8.67-5.07-19.37-8-28-0.33-3-.67-6-1-9-7.54-23.16-11.52-49.8-19-73q-1.5-8.505-3-17c-6.56-19.14-9.79-41.75-16-61v-5h-1v-4h-1v-4h-1v-4h-1v-4h-1v-4h-1v-4h-1v-4h-1v-4h-1v-4h-1v-5c-3.25-9.97-5.78-22.02-9-32q-1.5-8.505-3-17c-2.51-7.32-4.63-16.64-7-24q-1.5-8.505-3-17c-1.61-4.71-3.4-11.29-5-16v-4h-1q-1.005-6.495-2-13c-2.95-8.61-5.2-19.33-8-28v-5c-7.55-23.18-11.53-49.82-19-73q-1.005-6.495-2-13c-5.67-16.57-8.36-36.42-14-53q-1.5-8.505-3-17c-6.69-20.55-10.06-44.55-17-65q-1.005-6.495-2-13c-6.55-19.16-9.47-41.8-16-61q-1.005-6.495-2-13c-6.69-20.54-10.04-44.53-17-65q-1.005-6.495-2-13c-3.25-9.97-5.63-22.08-9-32-0.33-3-.67-6-1-9-2.82-8.67-5.07-19.37-8-28-0.33-3-.67-6-1-9-7.11-21.84-10.62-47.25-18-69-0.33-3-.67-6-1-9h-1v-4h-1v-4h-1v-4h-1q-2.505-12-5-24h-1q-1.005-6.495-2-13c-6.12-17.88-8.92-39.13-15-57q-1.005-6.495-2-13c-7.55-23.18-11.53-49.82-19-73v-5c-2.4-7.36-4.51-16.68-7-24q-1.005-6.495-2-13h-1v-4c-1.61-4.71-3.4-11.29-5-16-0.33-2.67-.67-5.33-1-8h-1v-4h-1v-5h-1v-4h-1v-4h-1v-4h-1v-4h-1v-4h-1q-1.005-6-2-12c-3.97-11.62-6.1-25.51-10-37-0.33-3-.67-6-1-9-3.25-9.97-5.63-22.08-9-32-0.33-3-.67-6-1-9-3.25-9.97-5.78-22.02-9-32-0.33-3-.67-6-1-9-2.95-8.63-5.07-19.36-8-28-0.33-3-.67-6-1-9-2.82-8.67-5.07-19.37-8-28-0.33-3-.67-6-1-9-7.54-23.16-11.52-49.8-19-73-0.33-3-.67-6-1-9-3.39-9.91-5.78-22.02-9-32v-5c-2.82-8.67-5.07-19.37-8-28-0.33-3-.67-6-1-9-7.11-21.84-10.62-47.25-18-69-0.33-3-.67-6-1-9h-1v-4h-1v-4h-1v-4h-1q-2.505-12-5-24h-1c-0.33-3-.67-6-1-9-2.94-8.62-5.2-19.33-8-28v-5c-7.54-23.16-11.52-49.8-19-73v-5c-2.4-7.36-4.51-16.68-7-24-0.33-2.67-.67-5.33-1-8h-1c-0.33-3-.67-6-1-9-3.39-9.91-5.78-22.02-9-32v-5c-7.11-21.85-10.62-47.26-18-69-0.33-3-.67-6-1-9h-1v-4h-1v-4h-1v-4h-1v-4h-1v-4h-1v-4h-1v-4h-1v-4h-1v-5c-6.69-20.54-10.04-44.53-17-65q-1.005-6.495-2-13c-6.69-20.54-10.04-44.53-17-65q-1.005-6.495-2-13c-3.25-9.97-5.63-22.08-9-32-0.33-3-.67-6-1-9-2.82-8.67-5.07-19.37-8-28-0.33-3-.67-6-1-9-7.11-21.84-10.62-47.25-18-69-0.33-3-.67-6-1-9h-1v-4h-1v-4h-1v-4h-1q-2.505-12-5-24h-1c-0.33-3-.67-6-1-9-2.94-8.62-5.2-19.33-8-28v-5c-2.82-8.67-5.07-19.37-8-28-0.33-3-.67-6-1-9-7.54-23.16-11.52-49.8-19-73-0.33-3-.67-6-1-9-3.39-9.91-5.78-22.02-9-32v-5c-2.82-8.67-5.07-19.37-8-28-0.33-3-.67-6-1-9-7.54-23.16-11.52-49.8-19-73-0.33-3-.67-6-1-9-3.39-9.91-5.78-22.02-9-32v-5c-2.82-8.67-5.07-19.37-8-28-0.33-3-.67-6-1-9-7.54-23.16-11.52-49.8-19-73-0.33-3-.67-6-1-9-3.39-9.91-5.78-22.02-9-32v-5c-7.11-21.85-10.62-47.26-18-69-0.33-3-.67-6-1-9h-1v-4h-1v-4h-1v-4h-1v-4h-1v-4h-1v-4h-1v-4h-1v-4h-1v-5c-6.69-20.55-10.04-44.55-17-65q-1.005-6.495-2-13c-6.69-20.55-10.04-44.55-17-65q-1.005-6.495-2-13c-3.25-9.97-5.78-22.02-9-32-0.33-3-.67-6-1-9-2.95-8.63-5.07-19.36-8-28-0.33-3-.67-6-1-9-2.82-8.67-5.07-19.37-8-28-0.33-3-.67-6-1-9-7.54-23.16-11.52-49.8-19-73-0.33-3-.67-6-1-9-3.39-9.91-5.78-22.02-9-32v-5c-2.82-8.67-5.07-19.37-8-28-0.33-3-.67-6-1-9-7.11-21.84-10.62-47.25-18-69-0.33-3-.67-6-1-9h-1v-4h-1v-4h-1v-4h-1q-2.505-12-5-24h-1c-0.33-3-.67-6-1-9-2.94-8.62-5.2-19.33-8-28v-5c-6.69-20.55-10.04-44.55-17-65q-1.005-6.495-2-13c-3.25-9.97-5.78-22.02-9-32-0.33-3-.67-6-1-9-2.95-8.63-5.07-19.36-8-28-0.33-3-.67-6-1-9-2.82-8.67-5.07-19.37-8-28-0.33-3-.67-6-1-9-7.54-23.16-11.52-49.8-19-73q-1.005-6.495-2-13c-6.12-17.86-8.91-39.11-15-57q-1.005-6.495-2-13c-3.25-9.97-5.63-22.08-9-32-0.33-3-.67-6-1-9-2.82-8.67-5.07-19.37-8-28-0.33-3-.67-6-1-9-7.54-23.16-11.52-49.8-19-73q-1.005-6.495-2-13c-6.11-17.86-8.91-39.11-15-57q-1.005-6.495-2-13c-3.25-9.97-5.78-22.02-9-32v-5c-3.25-9.97-5.63-22.08-9-32-0.33-3-.67-6-1-9-2.82-8.67-5.07-19.37-8-28-0.33-3-.67-6-1-9-7.54-23.16-11.52-49.8-19-73-0.33-3-.67-6-1-9-3.39-9.91-5.78-22.02-9-32v-5c-2.82-8.67-5.07-19.37-8-28-0.33-3-.67-6-1-9-7.54-23.16-11.52-49.8-19-73-0.33-3-.67-6-1-9-3.39-9.91-5.78-22.02-9-32v-5c-7.11-21.85-10.62-47.26-18-69-0.33-3-.67-6-1-9h-1v-4h-1v-4h-1v-4h-1v-4h-1v-4h-1v-4h-1v-4h-1v-4h-1v-5c-7.11-21.84-10.62-47.25-18-69q-1.5-8.505-3-17c-6.57-19.19-9.49-41.83-16-61q-1.005-6.495-2-13c-6.55-19.17-9.48-41.83-16-61q-1.005-6.495-2-13c-3.25-9.97-5.78-22.02-9-32-0.33-3-.67-6-1-9-2.95-8.63-5.07-19.36-8-28-0.33-3-.67-6-1-9-2.82-8.67-5.07-19.37-8-28-0.33-3-.67-6-1-9-7.54-23.16-11.52-49.8-19-73q-1.005-6.495-2-13c-6.11-17.86-8.91-39.11-15-57q-1.005-6.495-2-13c-3.67-11.27-6.36-24.72-10-36q-1.005-6.495-2-13c-2.51-7.32-4.63-16.64-7-24q-1.5-8.505-3-17c-2.51-7.31-4.63-16.64-7-24-0.33-3-.67-6-1-9-2.94-8.62-5.2-19.33-8-28v-5c-7.55-23.18-11.53-49.82-19-73q-1.005-6.495-2-13c-6.12-17.88-8.92-39.13-15-57q-1.005-6.495-2-13c-7.12-21.85-10.62-47.26-18-69-0.33-3-.67-6-1-9h-1v-4h-1v-4h-1v-4h-1v-4h-1v-4h-1v-4h-1v-4h-1v-4h-1v-5c-7.11-21.839-10.62-47.245-18-69q-1.5-8.5-3-17c-6.56-19.161-9.49-41.821-16-61q-1.005-6.5-2-13c-6.55-19.156-9.47-41.8-16-61q-1.005-6.5-2-13c-3.25-9.972-5.63-22.075-9-32-0.33-3-.67-6-1-9-2.82-8.668-5.07-19.373-8-28-0.33-3-.67-6-1-9-7.54-23.163-11.52-49.8-19-73v-5c-2.4-7.36-4.51-16.676-7-24-0.33-2.666-.67-5.333-1-8h-1q-1.5-8.5-3-17c-6.56-19.144-9.79-41.746-16-61v-5h-1v-4h-1v-4h-1v-4h-1v-4h-1v-4h-1v-4h-1v-4h-1v-4h-1v-4h-1v-5c-3.25-9.967-5.78-22.023-9-32-0.33-3-.67-6-1-9-2.95-8.634-5.07-19.36-8-28-0.33-3-.67-6-1-9-2.82-8.668-5.07-19.373-8-28-0.33-3-.67-6-1-9-7.54-23.165-11.53-49.8-19-73q-1.005-6.5-2-13c-4.34-12.709-7.05-28.007-11-41v-9c-7.08-21.832-10.61-47.2-18-69l-3-17h-1V55c-1.6-4.712-3.4-11.287-5-16-0.33-2.666-.67-5.334-1-8C2297.8,21.6,2295.23,12.41,2295,0Zm901,4413h31c0.73,4.7,2.68,9.93,4,14v5h1v4h1v4h1v4h1c0.33,2.67.67,5.33,1,8,2.97,8.63,5.05,19.36,8,28q1.5,8.505,3,17c5.81,17.77,9.25,38.21,15,56v5h1v4c1.61,4.71,3.39,11.29,5,16v4c2.96,8.63,5.06,19.36,8,28,0.33,3,.67,6,1,9,8.46,25.97,12.66,55.14,21,81q1.005,6.495,2,13c6.93,20.24,10.1,43.74,17,64q1.005,6.495,2,13c4.52,13.86,7.3,30.2,12,44q1.005,6,2,12c3.91,11.4,6.1,25.54,10,37,0.33,2.67.67,5.33,1,8,2.96,8.63,5.06,19.36,8,28,0.33,2.67.67,5.33,1,8,2.51,7.31,4.62,16.64,7,24v5c7.91,24.27,12.16,51.7,20,76v5h1v4h1v4h1v4h1v4h1v4c2.06,6.03,3.95,13.97,6,20,0.33,2.67.67,5.33,1,8,7.44,21.72,10.6,47.26,18,69q1.995,10.005,4,20h1c0.33,2.67.67,5.33,1,8h1v4h1v4h1v4h1v4h1v5c8.33,25.57,12.74,54.4,21,80v5h1v4h1v4h1v4h1v4h1v4c7.47,21.81,10.52,47.04,18,69q1.995,10.005,4,20c5.6,16.36,8.68,35.52,14,52q1.5,8.505,3,17c6.49,18.96,9.54,41.03,16,60q1.005,6.495,2,13c2.82,8.67,5.06,19.38,8,28,0.33,2.67.67,5.33,1,8,3.84,11.2,6.19,24.79,10,36,0.33,3,.67,6,1,9,8.33,25.57,12.74,54.4,21,80q1.5,8.505,3,17c6.93,20.23,10.43,43.62,17,64q1.5,8.505,3,17c7.37,21.51,11.01,46.33,18,68v5h1v4h1v4h1v4h1v4h1v4c6.05,17.65,9.26,38.22,15,56q1.5,8.505,3,17c6.49,18.96,9.54,41.03,16,60q1.005,6.495,2,13c2.82,8.67,5.06,19.38,8,28,0.33,2.67.67,5.33,1,8,3.84,11.2,6.19,24.79,10,36,0.33,3,.67,6,1,9,8.33,25.57,12.74,54.4,21,80v5h1v4c1.61,4.71,3.39,11.29,5,16v4c2.07,6.03,3.95,13.97,6,20,0.33,2.67.67,5.33,1,8,2.51,7.31,4.62,16.64,7,24v5c6.63,20.36,10.1,43.75,17,64q4.005,18.495,8,37c2.51,7.33,4.5,16.66,7,24,0.33,2.67.67,5.33,1,8,2.95,8.61,5.2,19.33,8,28v5c7.9,24.25,11.81,51.87,20,76,0.33,3,.67,6,1,9,2.82,8.67,5.06,19.38,8,28,0.33,2.67.67,5.33,1,8,4.28,12.5,6.75,27.49,11,40,0.33,3,.67,6,1,9,7.91,24.27,12.16,51.7,20,76v5h1v4c1.61,4.71,3.39,11.29,5,16,0.33,2.67.67,5.33,1,8,2.51,7.33,4.5,16.66,7,24q5.505,24.495,11,49c2.96,8.63,5.06,19.36,8,28,0.33,2.67.67,5.33,1,8,2.51,7.31,4.62,16.64,7,24v5c8.33,25.57,12.74,54.4,21,80,0.33,3,.67,6,1,9,3.39,9.91,5.62,22.09,9,32,0.33,2.67.67,5.33,1,8,3.39,9.91,5.78,22.02,9,32q1.5,8.505,3,17c2.07,6.03,3.95,13.97,6,20,0.33,2.67.67,5.33,1,8,8.32,24.29,11.72,52.67,20,77q1.995,10.005,4,20h1c0.33,2.67.67,5.33,1,8h1v4h1v4h1v4h1v4h1v5c7.06,21.66,10.67,46.46,18,68v4h1v4h1v4h1v5h1v4c6.92,20.25,10.1,43.74,17,64q1.005,6.495,2,13c4.52,13.86,7.3,30.2,12,44q1.005,6,2,12c3.92,11.43,6.07,25.46,10,37,0.33,2.67.67,5.33,1,8,2.96,8.63,5.06,19.36,8,28,0.33,2.67.67,5.33,1,8,2.51,7.31,4.62,16.64,7,24v5c8.33,25.57,12.74,54.4,21,80v5h1v4h1v4h1v4h1v4c6.93,20.23,10.43,43.62,17,64,0.33,3,.67,6,1,9,2.95,8.63,5.06,19.36,8,28q3,13.995,6,28,24.99,99.495,50,199v88h-1v3h-1v3h-1v3h-1v3h-1v3h-1v3h-1v3h-1v3h-1c-0.33,2-.67,4-1,6h-1v3h-1v3h-1v3h-1v3h-1v3h-1c-0.33,2-.67,4-1,6h-1v2h-1c-0.67,3-1.33,6-2,9h-1v3h-1v3h-1v3h-1v3c-5.98,15-10.63,32.4-17,47v3h-1v3h-1v3h-1v3h-1v3c-6.38,15.97-11.21,34.44-18,50-0.33,2-.67,4-1,6h-1v3h-1v3h-1v3h-1v3h-1v3h-1v3h-1c-0.33,2-.67,4-1,6-9.55,23.92-16.46,50.08-26,74-0.33,2-.67,4-1,6h-1v3h-1v3h-1v3h-1v3h-1v3h-1v3h-1v3h-1v2h-1c-0.67,3-1.33,6-2,9-3.77,9.43-7.24,20.57-11,30-0.67,3-1.33,6-2,9-13.66,34.18-23.36,71.8-37,106-0.67,3-1.33,6-2,9h-1v3h-1v3h-1v3h-1v3h-1v3h-1c-0.33,2-.67,4-1,6h-1c-0.33,2-.67,4-1,6h-1c-0.67,3-1.33,6-2,9h-1v2h-1v3h-1v3h-1v3h-1v3c-4.55,11.38-8.46,24.61-13,36v3h-1v3h-1v3h-1v3c-12.95,32.14-22.12,67.72-35,100-0.33,2-.67,4-1,6h-1v3h-1v3h-1v3h-1v3h-1v3h-1v3h-1c-0.33,2-.67,4-1,6h-1c-0.33,2-.67,4-1,6h-1v2h-1v3h-1v3h-1v3h-1v3h-1v3c-6.38,15.97-11.21,34.44-18,50v3h-1v3h-1v3h-1v3h-1v3h-1v3h-1c-0.33,2-.67,4-1,6-7.99,20.01-14.06,42.1-22,62l-6,21c-6.44,16.12-11.57,33.88-18,50q-2.505,9-5,18c-14.06,35.19-23.97,73.82-38,109-0.67,3-1.33,6-2,9-3.77,9.43-7.24,20.57-11,30-0.67,3-1.33,6-2,9h-1v2h-1c-0.67,3-1.33,6-2,9h-1v3h-1v3h-1v3h-1v3h-1v3h-1c-0.33,2-.67,4-1,6h-1l-6,21c-7.52,18.82-13.43,40.01-21,59l-6,21h-1v2h-1v3h-1v3h-1v3h-1v3h-1v3h-1v3h-1v3h-1c-0.33,2-.67,4-1,6-9.56,23.92-16.46,50.08-26,74l-6,21c-6.74,16.86-12.21,35.98-19,53l-6,21c-7.22,16.5-12.24,36.06-19,53v3h-1v3h-1v3h-1v3h-1v3h-1v2h-1c-0.67,3-1.33,6-2,9h-1v3h-1v3h-1v3h-1v3h-1v3h-1c-0.33,2-.67,4-1,6h-1v3h-1v3h-1v3h-1v3c-14.05,35.16-23.98,73.84-38,109-0.33,2-.67,4-1,6h-1v3h-1v3h-1v3h-1v3h-1v3h-1v3c-8.35,20.9-14.62,44-23,65-0.33,2-.67,4-1,6h-1v3h-1v3h-1v3h-1v3h-1v3h-1v3h-1v2h-1v3h-1v3h-1v3h-1v3h-1v3h-1v3h-1v3h-1c-0.33,2-.67,4-1,6-9.56,23.92-16.46,50.08-26,74-0.33,2-.67,4-1,6h-1v3h-1v3h-1v3h-1v3h-1v3h-1v3h-1v3h-1v2h-1l-6,21c-7.58,18.98-13.49,40.2-21,59l-6,21c-6.44,16.1-11.6,33.9-18,50q-2.505,9-5,18h-1v3h-1v3h-1v3h-1v3h-1v3h-1c-0.33,2-.67,4-1,6h-1c-0.67,3-1.33,6-2,9h-1v2h-1c-0.67,3-1.33,6-2,9-3.77,9.4-7.24,20.6-11,30-0.67,3-1.33,6-2,9-14.04,35.1-23.97,73.8-38,109l-6,21c-7.95,19.9-14.02,42-22,62-0.33,2-.67,4-1,6h-1v3h-1v3h-1v3h-1v3h-1v3h-1v3c-6.81,15.5-11.63,34-18,50v3h-1v3h-1v3h-1v3h-1v3h-1v2h-1c-0.67,3-1.33,6-2,9h-1v3h-1v3h-1v3h-1v3h-1v3h-1c-0.33,2-.67,4-1,6h-1c-0.33,2-.67,4-1,6h-1c-0.67,3-1.33,6-2,9-13.27,33.2-22.77,69.8-36,103-0.33,2-.67,4-1,6h-1v3h-1v3h-1v3h-1v3h-1v3h-1v3h-1c-0.33,2-.67,4-1,6h-1c-0.33,2-.67,4-1,6-10.88,27.3-19.08,57.8-30,85v3h-1v3h-1v3h-1v3h-1v3h-1v3h-1v3h-1c-0.33,2-.67,4-1,6h-1v3h-1v3h-1v3h-1v3h-1v3h-1c-0.33,2-.67,4-1,6h-1c-0.33,2-.67,4-1,6h-1c-0.67,3-1.33,6-2,9h-1v2h-1c-3,9.7-6,19.3-9,29H1062l6-21h1c0.67-3,1.33-6,2-9,4.17-10.4,7.84-22.6,12-33,0.33-2,.67-4,1-6h1v-3h1v-3h1v-3h1v-3h1v-3h1v-3c12.5-31.2,20.58-65.9,33-97l6-21c6.11-15.3,10.9-32.7,17-48v-3h1v-3h1v-3h1v-3h1v-4h1v-3h1v-3h1v-3h1c0.33-2,.67-4,1-6,8.06-20.2,13.95-42.8,22-63q2.505-9,5-18c6.11-15.3,10.94-32.7,17-48,1-4.3,2-8.7,3-13,4.55-11.4,8.46-24.6,13-36v-3h1v-3h1v-3h1v-3c9.62-24.1,16.39-50.9,26-75q2.505-9,5-18h1v-4h1v-3h1v-3h1v-3h1v-3h1c0.33-2,.67-4,1-6,4.55-11.4,8.46-24.6,13-36,0.67-3,1.33-6,2-9,8.84-22.1,15.17-46.9,24-69v-3h1v-3h1v-3h1v-3h1v-3h1v-4h1c0.33-2,.67-4,1-6,3.76-9.4,7.24-20.6,11-30v-3h1v-3h1v-3h1v-3h1v-3c6.11-15.3,10.9-32.7,17-48v-3h1v-3h1v-3h1v-3c3.77-9.4,7.24-20.6,11-30,0.33-2,.67-4,1-6h1v-4h1q2.505-9,5-18c10.01-25.07,17-52.93,27-78,0.67-3,1.33-6,2-9,4.55-11.4,8.46-24.6,13-36,0.67-3.33,1.33-6.67,2-10h1c0.33-2,.67-4,1-6h1v-3h1v-3h1v-3h1v-3h1v-3h1c0.33-2,.67-4,1-6h1v-3h1v-3h1v-3h1v-3c3.77-9.43,7.24-20.57,11-30,0.67-3,1.33-6,2-9,7.28-18.23,12.73-38.77,20-57v-3h1v-3h1v-3h1v-3h1v-3h1v-4h1c0.33-2,.67-4,1-6,3.76-9.43,7.24-20.57,11-30,0.67-3,1.33-6,2-9h1v-3h1v-3h1v-3h1v-3h1v-3h1v-3h1c0.33-2,.67-4,1-6h1c0.33-2,.67-4,1-6,7.28-18.23,12.73-38.77,20-57v-3h1v-3h1v-3h1v-3h1v-3h1v-4h1c0.33-2,.67-4,1-6,3.76-9.43,7.24-20.57,11-30,0.33-2,.67-4,1-6h1v-3h1v-3h1v-3h1v-3h1v-3h1c0.33-2,.67-4,1-6h1v-3c8.45-21.16,14.56-44.84,23-66v-3h1v-3h1v-3h1v-3h1v-3h1v-4h1v-3h1v-3h1v-3h1v-3h1v-3h1c0.33-2,.67-4,1-6,8.06-20.18,13.95-42.81,22-63q2.505-9,5-18c4.55-11.38,8.46-24.61,13-36,0.67-3,1.33-6,2-9h1q1.5-6.495,3-13c4.55-11.38,8.46-24.61,13-36,0.67-3,1.33-6,2-9,9.62-24.09,16.39-50.9,26-75q2.505-9,5-18h1v-4h1v-3h1v-3h1v-3h1v-3h1v-3h1v-3h1c0.67-3,1.33-6,2-9,4.16-10.41,7.85-22.59,12-33,0.67-3,1.33-6,2-9,8.06-20.18,13.95-42.81,22-63v-3h1v-3h1v-3h1v-3h1v-3h1c0.33-2.33.67-4.67,1-7,6.46-16.29,11.51-34.72,18-51v-3h1v-3h1v-3h1v-3h1v-3c7.28-18.23,12.73-38.77,20-57,0.33-2,.67-4,1-6h1v-3h1v-3h1v-3h1v-3h1v-3h1v-4h1v-3h1v-3h1v-3h1v-3c7.28-18.23,12.73-38.77,20-57v-3h1v-3h1v-3h1v-3h1v-3c7.28-18.23,12.73-38.77,20-57,0.67-3.33,1.33-6.67,2-10h1q2.505-9,5-18c9.62-24.09,16.39-50.9,26-75,0.67-3,1.33-6,2-9,4.55-11.38,8.46-24.61,13-36v-3h1v-3h1v-3h1v-3h1v-4h1c0.67-3,1.33-6,2-9,3.77-9.43,7.24-20.57,11-30v-3h1v-3h1v-3h1v-3h1v-3c7.67-19.2,13.34-40.79,21-60,0.67-3,1.33-6,2-9h1v-3h1v-3h1v-3h1v-3h1v-3h1v-3h1c0.33-2,.67-4,1-6h1v-4h1v-3h1v-3h1v-3h1v-3c6.5-16.27,11.51-34.72,18-51q2.505-9,5-18c7.67-19.2,13.34-40.79,21-60,0.67-3.33,1.33-6.67,2-10,17.54-48.13,32.58-98.83,50-147q1.5-6.495,3-13c10.79-27.02,18.22-56.97,29-84v-3h1v-3h1v-3h1v-3c4.94-12.36,9.11-26.62,14-39,0.33-2.33.67-4.67,1-7,17.54-48.13,32.58-98.83,50-147q1.5-6.495,3-13c10.8-27.02,18.22-56.97,29-84v-3h1v-3h1v-3h1v-3c4.94-12.36,9.11-26.62,14-39,0.33-2.33.67-4.67,1-7h1v-3h1v-3h1v-3h1v-3h1v-3c8.45-21.16,14.56-44.84,23-66,0.67-3,1.33-6,2-9,4.16-10.41,7.85-22.59,12-33,0.67-3,1.33-6,2-9h1v-3h1v-3h1v-3h1v-3h1v-3h1v-3h1q1.5-6.495,3-13c12.73-31.88,21.29-67.12,34-99,0.33-2,.67-4,1-6h1v-3h1v-3h1v-3h1v-3h1v-3h1v-3h1v-3h1q4.995-16.995,10-34c11.58-28.98,19.44-61.02,31-90,0.33-2,.67-4,1-6h1v-3h1v-3h1v-3h1v-3h1v-3h1v-3h1c0.33-2,.67-4,1-6h1v-3h1v-3h1v-3h1v-4h1c0.67-3,1.33-6,2-9,5.72-14.32,10.29-30.68,16-45q2.505-9,5-18c8.84-22.14,15.18-46.86,24-69,0.67-3.33,1.33-6.67,2-10,17.54-48.13,32.58-98.83,50-147,0.67-3.33,1.33-6.67,2-10,7.67-19.21,13.34-40.79,21-60v-3h1v-3h1v-3h1v-3h1v-3c6.89-17.25,12.12-36.75,19-54v-3h1v-3h1v-3h1v-3h1v-4h1c0.33-2,.67-4,1-6h1v-3h1v-3h1v-3h1v-3h1v-3h1v-3h1c0.67-3,1.33-6,2-9,7.67-19.2,13.34-40.79,21-60q2.505-9,5-18c3.77-9.43,7.24-20.57,11-30,0.33-2,.67-4,1-6h1v-4h1v-3h1v-3h1v-3h1v-3h1c0.33-2,.67-4,1-6,4.55-11.38,8.46-24.61,13-36,0.67-3,1.33-6,2-9,9.23-23.11,15.78-48.88,25-72v-3h1v-3h1v-3h1v-3h1v-3h1v-4h1v-3h1v-3h1v-3h1c0.33-2,.67-4,1-6,11.58-28.98,19.44-61.02,31-90,0.33-2,.67-4,1-6h1v-3h1v-3h1v-3h1v-3h1v-3h1v-3h1c0.33-2,.67-4,1-6h1v-3h1v-3h1v-3h1v-3h1v-4h1v-3h1v-3h1v-3h1v-3h1v-3c8.06-20.18,13.95-42.81,22-63,0.67-3,1.33-6,2-9,4.16-10.41,7.85-22.59,12-33,0.67-3,1.33-6,2-9h1v-3h1v-3h1v-3h1v-3h1v-3h1v-3h1v-4h1v-3h1v-3h1v-3h1v-3h1v-3c8.06-20.18,13.95-42.81,22-63,0.67-3,1.33-6,2-9,4.16-10.41,7.85-22.59,12-33,0.67-3,1.33-6,2-9h1v-3h1v-3h1v-3h1v-3h1v-3h1v-3h1v-4h1c0.67-3,1.33-6,2-9,5.72-14.32,10.29-30.68,16-45q2.505-9,5-18c8.84-22.14,15.18-46.86,24-69,0.67-3.33,1.33-6.67,2-10,17.54-48.13,32.58-98.83,50-147v-4h1v-3h1v-3h1v-3h1v-3h1v-3h1v-3h1c0.67-3,1.33-6,2-9,4.16-10.41,7.85-22.59,12-33,0.67-3,1.33-6,2-9,8.06-20.18,13.95-42.81,22-63v-3h1v-3h1v-3h1v-3h1v-3h1c0.67-3.33,1.33-6.67,2-10,7.67-19.21,13.34-40.79,21-60,0.67-3,1.33-6,2-9,3.77-9.43,7.24-20.57,11-30,0.33-2,.67-4,1-6,3.77-9.43,7.24-20.57,11-30,0.33-2,.67-4,1-6h1v-4h1q2.505-9,5-18c9.62-24.09,16.39-50.9,26-75,0.67-3,1.33-6,2-9,4.55-11.38,8.46-24.61,13-36v-3h1v-3h1v-3h1v-3h1v-4h1c0.33-2,.67-4,1-6h1v-3h1v-3h1v-3h1v-3h1v-3h1c0.33-2,.67-4,1-6h1c0.67-3,1.33-6,2-9,12.73-31.88,21.29-67.12,34-99v-3h1v-3h1v-3h1v-3h1v-4c17.54-48.13,32.58-98.83,50-147q1.5-6.495,3-13c10.8-27.02,18.22-56.97,29-84v-3h1v-3h1v-3h1v-3c4.94-12.36,9.11-26.62,14-39,0.33-2.33.67-4.67,1-7h1q2.505-9,5-18c8.84-22.14,15.18-46.86,24-69,0.67-3,1.33-6,2-9,4.55-11.4,8.46-24.59,13-36,0.33-2,.67-4,1-6h1v-3h1v-3h1v-3h1v-4h1v-3h1v-3h1v-3h1v-3h1v-3h1v-3h1v-3h1c0.33-2,.67-4,1-6h1v-3h1v-3h1v-3h1v-3h1v-3h1v-3h1c0.33-2,.67-4,1-6h1v-2c0.67-.33,1.33-0.67,2-1v-3h1v-3h1v-3h1v-3h1c0.33-2,.67-4,1-6h1v-3h1v-3h1v-3h1v-3h1v-3h1v-3h1v-3h1v-3h1v-3h1v-3h1v-3h1c0.33-2,.67-4,1-6C3193.89,4417.77,3195.35,4415.81,3196,4413Z"/>
</svg>
