<svg id="Layer_2" data-name="Layer 2" xmlns="http://www.w3.org/2000/svg" viewBox="0 0 600 600"><defs><style>.cls-2{fill:#fff;}</style></defs><path class="cls-2" d="M300,38.51C152.34,38.4,29.28,157.49,22.56,303c-4.43,96.1,42.76,184.61,116.7,238V518.32C76.24,467.82,36.77,389,40.7,303.85,47,167.85,162,56.55,300,56.66A255.61,255.61,0,0,1,402.46,78.17V58.5A273.11,273.11,0,0,0,300,38.51ZM462.11,91.6v22.82C521.05,162,559.34,234.64,559.34,316c0,143.14-118.58,259.26-259.32,259.32a253.64,253.64,0,0,1-101.12-21V574A271.24,271.24,0,0,0,300,593.45C450.63,593.4,577.5,469.13,577.5,316,577.5,223.83,531.58,142.08,462.11,91.6Z"/><path class="cls-2" d="M383,401.11h0A9.72,9.72,0,0,1,369.36,399L242.71,225.68a35.9,35.9,0,0,0-41.22-10.84c-14.89,6-22,22-22,37.6V583.72a9.73,9.73,0,0,1-9.72,9.73h0a9.73,9.73,0,0,1-9.73-9.73V252.44c0-25.93,14-49.26,37.6-57.05,21.46-7.07,45.61.13,60.35,18.18,67.79,92,63.59,87.76,127.06,173.94A9.74,9.74,0,0,1,383,401.11Z"/><path class="cls-2" d="M217.12,229.46h0a9.72,9.72,0,0,1,13.59,2.07L357.36,404.88a35.86,35.86,0,0,0,41.21,10.84c14.9-6,22.05-22,22.05-37.6V15.72A9.72,9.72,0,0,1,430.34,6h0a9.72,9.72,0,0,1,9.72,9.72v362.4c0,25.93-14,49.27-37.6,57.05C381,442.25,356.86,435,342.12,417c-67.79-92-63.6-87.75-127.06-173.93A9.72,9.72,0,0,1,217.12,229.46Z"/></svg>